<svg xmlns="http://www.w3.org/2000/svg" viewBox="0 0 500 500"><g id="freepik--Code--inject-59"><g id="freepik--binary-numbers--inject-59"><path d="M363.8,256.24l2.3-1.76V237.31l-2.34,1.41v-1.94l4.36-4v20.49l2.29-.88v2l-6.61,3.81Z" style="fill:#e0e0e0"></path><path d="M371.62,277.21a19.62,19.62,0,0,1-1.26,7.46,8.53,8.53,0,0,1-3.47,4.34c-1.46.84-2.61.73-3.46-.35s-1.28-3.06-1.28-6v-5.43a19.73,19.73,0,0,1,1.26-7.46,8.48,8.48,0,0,1,3.46-4.34c1.47-.85,2.62-.74,3.48.34s1.27,3.07,1.27,6Zm-2-4.93a8.19,8.19,0,0,0-.7-4.07q-.71-1.09-2-.33a4.82,4.82,0,0,0-2,2.67,14.29,14.29,0,0,0-.7,4.88v6.72a8.31,8.31,0,0,0,.71,4.09c.47.74,1.14.85,2,.35a4.89,4.89,0,0,0,2-2.69,14.61,14.61,0,0,0,.69-4.9Z" style="fill:#e0e0e0"></path><path d="M363.8,320.71l2.3-1.77V301.77l-2.34,1.42v-1.94l4.36-4v20.49l2.29-.88v2l-6.61,3.82Z" style="fill:#e0e0e0"></path><path d="M334.47,305.42l2.3-1.77V286.48l-2.34,1.41V286l4.35-4v20.5l2.29-.89v2l-6.6,3.81Z" style="fill:#e0e0e0"></path><path d="M342.29,326.38a19.45,19.45,0,0,1-1.27,7.46,8.52,8.52,0,0,1-3.46,4.34q-2.19,1.26-3.47-.35t-1.27-6v-5.43a19.73,19.73,0,0,1,1.26-7.46,8.55,8.55,0,0,1,3.46-4.35c1.46-.84,2.62-.73,3.47.35s1.28,3.07,1.28,6Zm-2-4.93a8.31,8.31,0,0,0-.7-4.07q-.7-1.1-2-.33a4.88,4.88,0,0,0-2,2.67,14.52,14.52,0,0,0-.69,4.88v6.72a8.33,8.33,0,0,0,.7,4.09c.47.73,1.15.85,2,.35a4.93,4.93,0,0,0,2-2.69,14.65,14.65,0,0,0,.69-4.9Z" style="fill:#e0e0e0"></path><path d="M393.14,239.3l2.3-1.76V220.37l-2.34,1.41v-1.94l4.35-4v20.49l2.29-.88v2l-6.6,3.81Z" style="fill:#e0e0e0"></path><path d="M455.87,375a19.42,19.42,0,0,1-1.27,7.46,8.49,8.49,0,0,1-3.47,4.34c-1.45.85-2.61.73-3.46-.34s-1.28-3.07-1.28-6V375a19.49,19.49,0,0,1,1.27-7.46,8.5,8.5,0,0,1,3.45-4.35c1.47-.85,2.63-.73,3.48.34s1.28,3.08,1.28,6Zm-2-4.92a8.24,8.24,0,0,0-.7-4.08c-.46-.73-1.14-.84-2-.32a4.84,4.84,0,0,0-2,2.66,14.54,14.54,0,0,0-.7,4.88v6.72a8.26,8.26,0,0,0,.71,4.09c.47.74,1.15.86,2,.35a4.82,4.82,0,0,0,2-2.68,14.69,14.69,0,0,0,.69-4.9Z" style="fill:#e0e0e0"></path><path d="M448.05,418.48l2.3-1.77V399.54L448,401V399l4.35-4v20.5l2.29-.89v2l-6.6,3.81Z" style="fill:#e0e0e0"></path><path d="M418.71,403.18l2.3-1.77V384.24l-2.34,1.42v-1.94l4.36-4v20.49l2.28-.88v2l-6.6,3.81Z" style="fill:#e0e0e0"></path><path d="M425.77,56.22a19.42,19.42,0,0,1-1.27,7.46A8.48,8.48,0,0,1,421,68q-2.19,1.26-3.47-.34c-.85-1.08-1.28-3.07-1.28-6V56.26a19.75,19.75,0,0,1,1.27-7.46A8.53,8.53,0,0,1,421,44.46c1.46-.85,2.62-.73,3.47.34s1.28,3.08,1.28,6Zm-2-4.93a8.31,8.31,0,0,0-.7-4.07q-.71-1.09-2-.33a4.88,4.88,0,0,0-2,2.67,14.56,14.56,0,0,0-.69,4.88v6.72a8.31,8.31,0,0,0,.7,4.09c.47.74,1.15.85,2,.35a4.89,4.89,0,0,0,2-2.69,14.61,14.61,0,0,0,.69-4.9Z" style="fill:#e0e0e0"></path><path d="M447,83.63l2.3-1.76V64.7l-2.34,1.41V64.17l4.35-4V80.7l2.29-.88v2L447,85.62Z" style="fill:#e0e0e0"></path><path d="M321,93.56l2.3-1.76V74.63L321,76V74.1l4.35-4V90.63l2.29-.88v2L321,95.55Z" style="fill:#e0e0e0"></path><path d="M328.81,114.53a19.45,19.45,0,0,1-1.27,7.46,8.53,8.53,0,0,1-3.47,4.34c-1.45.84-2.61.72-3.46-.35s-1.28-3.06-1.28-6v-5.43a19.52,19.52,0,0,1,1.27-7.46,8.54,8.54,0,0,1,3.45-4.35c1.47-.84,2.63-.73,3.48.35s1.28,3.07,1.28,6Zm-2-4.93a8.19,8.19,0,0,0-.7-4.07q-.69-1.09-2-.33a4.86,4.86,0,0,0-2,2.67,14.5,14.5,0,0,0-.7,4.88v6.72a8.31,8.31,0,0,0,.71,4.09c.47.73,1.15.85,2,.35a4.84,4.84,0,0,0,2-2.69,14.65,14.65,0,0,0,.69-4.9Z" style="fill:#e0e0e0"></path><path d="M321,158l2.3-1.77V139.09L321,140.51v-1.94l4.35-4V155.1l2.29-.88v2L321,160Z" style="fill:#e0e0e0"></path><path d="M291.65,142.73,294,141V123.8l-2.34,1.41v-1.93l4.36-4v20.5l2.29-.89v2l-6.61,3.81Z" style="fill:#e0e0e0"></path><path d="M299.47,163.7a19.66,19.66,0,0,1-1.26,7.46,8.57,8.57,0,0,1-3.47,4.34q-2.19,1.26-3.46-.35c-.86-1.07-1.28-3.06-1.28-6v-5.43a19.73,19.73,0,0,1,1.26-7.46,8.51,8.51,0,0,1,3.46-4.35c1.47-.84,2.62-.73,3.48.35s1.27,3.07,1.27,6Zm-2-4.93a8.19,8.19,0,0,0-.7-4.07c-.47-.73-1.15-.85-2-.33a4.82,4.82,0,0,0-2,2.67,14.22,14.22,0,0,0-.7,4.87v6.73a8.24,8.24,0,0,0,.71,4.08c.47.74,1.14.86,2,.35a4.82,4.82,0,0,0,2-2.68,14.65,14.65,0,0,0,.69-4.9Z" style="fill:#e0e0e0"></path><path d="M350.32,76.62l2.3-1.76V57.68l-2.34,1.42V57.16l4.35-4V73.69l2.29-.88v2l-6.6,3.82Z" style="fill:#e0e0e0"></path></g></g><g id="freepik--Window--inject-59"><g id="freepik--window--inject-59"><g id="freepik--window--inject-59"><path d="M283.18,45.39a1.85,1.85,0,0,0-.07-.41.1.1,0,0,0,0-.09,1.56,1.56,0,0,0-.1-.4,2,2,0,0,0-.27-.58.87.87,0,0,0-.15-.24.51.51,0,0,0-.13-.16,1.42,1.42,0,0,0-.3-.3l0,0a2.08,2.08,0,0,0-.38-.22,3.3,3.3,0,0,0-3.05.38L50.84,174.43c-2.49,1.44-4.53,5-4.53,10V455.7A3.12,3.12,0,0,0,51,458.4L278.68,327.31a10,10,0,0,0,4.53-7.84V46A5.3,5.3,0,0,0,283.18,45.39Z" style="fill:#37474f"></path><path d="M281.73,42.94a3.26,3.26,0,0,0-3,.39L50.85,174.42a10,10,0,0,0-4.53,7.84V191l-4.14-2.44v-8.67a10,10,0,0,1,4.51-7.83L274.55,41a3.13,3.13,0,0,1,3.28-.27C278.65,41.23,280.77,42.43,281.73,42.94Z" style="fill:#2C2D32"></path><path d="M283.21,45.91c0-2.86-2-4-4.52-2.58L50.85,174.42a10,10,0,0,0-4.53,7.84v8.79L283.21,54.75Z" style="fill:#2C2D32"></path><g style="opacity:0.30000000000000004"><path d="M278.68,43.33,50.85,174.42a9.23,9.23,0,0,0-3.19,3.36l-4.11-2.38a9.06,9.06,0,0,1,3.15-3.31L274.54,41a3.21,3.21,0,0,1,3.29-.27c.81.5,2.93,1.69,3.89,2.2A3.3,3.3,0,0,0,278.68,43.33Z" style="fill:#fff"></path></g><path d="M42.17,188.62v-8.7a9.31,9.31,0,0,1,1.38-4.52l4.13,2.36a9.21,9.21,0,0,0-1.36,4.5v8.79Z" style="opacity:0.25"></path><path d="M265.37,55.21a4.54,4.54,0,0,0-1.72,3.64c0,1.46.77,2.2,1.72,1.65a4.51,4.51,0,0,0,1.72-3.64C267.09,55.4,266.32,54.66,265.37,55.21Z" style="fill:#fafafa"></path><path d="M271.56,51.63a4.51,4.51,0,0,0-1.72,3.64c0,1.46.77,2.2,1.72,1.65a4.54,4.54,0,0,0,1.72-3.64C273.28,51.82,272.51,51.08,271.56,51.63Z" style="fill:#fafafa"></path><path d="M277.75,48A4.55,4.55,0,0,0,276,51.69c0,1.46.77,2.2,1.72,1.65a4.54,4.54,0,0,0,1.72-3.64C279.47,48.24,278.7,47.5,277.75,48Z" style="fill:#fafafa"></path><path d="M47.94,458.44l-.23-.13-3.13-1.82A4.81,4.81,0,0,1,42.21,453c0-.22,0-.44,0-.66V188.6l4.15,2.45V455.69A3.12,3.12,0,0,0,47.94,458.44Z" style="fill:#263238"></path></g><g id="freepik--Binary--inject-59"><path d="M89.88,192.07l1.27-1v-9.52l-1.3.79V181.3l2.42-2.2v11.35l1.26-.49v1.1l-3.65,2.11Z" style="fill:#fff;opacity:0.15"></path><path d="M94.21,203.69a10.81,10.81,0,0,1-.7,4.13,4.75,4.75,0,0,1-1.92,2.4c-.81.47-1.45.4-1.92-.19a5.58,5.58,0,0,1-.71-3.31v-3a10.81,10.81,0,0,1,.7-4.13,4.73,4.73,0,0,1,1.92-2.41c.81-.47,1.45-.41,1.92.19a5.62,5.62,0,0,1,.71,3.32ZM93.09,201a4.71,4.71,0,0,0-.38-2.26c-.26-.41-.64-.47-1.13-.18A2.66,2.66,0,0,0,90.46,200a7.89,7.89,0,0,0-.38,2.7v3.72a4.57,4.57,0,0,0,.39,2.26c.26.41.63.48,1.12.2a2.68,2.68,0,0,0,1.12-1.49,8,8,0,0,0,.38-2.71Z" style="fill:#fff;opacity:0.15"></path><path d="M89.88,227.78l1.27-1v-9.51l-1.3.79V217l2.42-2.19v11.35l1.26-.49v1.1l-3.65,2.11Z" style="fill:#fff"></path><path d="M94.21,239.39a10.83,10.83,0,0,1-.7,4.14,4.75,4.75,0,0,1-1.92,2.4c-.81.47-1.45.4-1.92-.19a5.62,5.62,0,0,1-.71-3.32v-3a10.86,10.86,0,0,1,.7-4.14,4.71,4.71,0,0,1,1.92-2.4c.81-.47,1.45-.41,1.92.19a5.62,5.62,0,0,1,.71,3.32Zm-1.12-2.73a4.66,4.66,0,0,0-.38-2.25c-.26-.41-.64-.47-1.13-.18a2.67,2.67,0,0,0-1.12,1.47,8,8,0,0,0-.38,2.71v3.72a4.57,4.57,0,0,0,.39,2.26c.26.41.63.48,1.12.2a2.68,2.68,0,0,0,1.12-1.49,8,8,0,0,0,.38-2.71Z" style="fill:#fff;opacity:0.30000000000000004"></path><path d="M89.88,263.49l1.27-1V253l-1.3.78v-1.07l2.42-2.19v11.35l1.26-.49v1.1l-3.65,2.11Z" style="fill:#fff;opacity:0.30000000000000004"></path><path d="M89.88,281.34l1.27-1v-9.51l-1.3.79v-1.08l2.42-2.19v11.35l1.26-.49v1.1l-3.65,2.11Z" style="fill:#fff"></path><path d="M89.88,299.2l1.27-1v-9.51l-1.3.78v-1.07l2.42-2.2v11.35l1.26-.48v1.09l-3.65,2.12Z" style="fill:#fff;opacity:0.15"></path><path d="M94.21,310.81a10.77,10.77,0,0,1-.7,4.13,4.71,4.71,0,0,1-1.92,2.4c-.81.47-1.45.41-1.92-.19a5.58,5.58,0,0,1-.71-3.31v-3a10.84,10.84,0,0,1,.7-4.13,4.73,4.73,0,0,1,1.92-2.41c.81-.47,1.45-.4,1.92.19a5.64,5.64,0,0,1,.71,3.32Zm-1.12-2.73a4.71,4.71,0,0,0-.38-2.26c-.26-.4-.64-.46-1.13-.18a2.69,2.69,0,0,0-1.12,1.48,7.89,7.89,0,0,0-.38,2.7v3.72a4.61,4.61,0,0,0,.39,2.27c.26.41.63.47,1.12.19a2.65,2.65,0,0,0,1.12-1.48,8,8,0,0,0,.38-2.72Z" style="fill:#fff"></path><path d="M89.88,334.9l1.27-1v-9.51l-1.3.78v-1.07l2.42-2.2v11.35l1.26-.49v1.1L89.88,336Z" style="fill:#fff"></path><path d="M94.21,346.52a10.77,10.77,0,0,1-.7,4.13,4.75,4.75,0,0,1-1.92,2.4c-.81.47-1.45.41-1.92-.19a5.58,5.58,0,0,1-.71-3.31v-3a10.81,10.81,0,0,1,.7-4.13A4.73,4.73,0,0,1,91.58,340c.81-.47,1.45-.4,1.92.19a5.62,5.62,0,0,1,.71,3.32Zm-1.12-2.73a4.71,4.71,0,0,0-.38-2.26c-.26-.4-.64-.47-1.13-.18a2.66,2.66,0,0,0-1.12,1.48,7.89,7.89,0,0,0-.38,2.7v3.72a4.61,4.61,0,0,0,.39,2.27c.26.41.63.47,1.12.19a2.68,2.68,0,0,0,1.12-1.49,8,8,0,0,0,.38-2.71Z" style="fill:#fff;opacity:0.15"></path><path d="M89.88,370.61l1.27-1v-9.51l-1.3.79v-1.08l2.42-2.19V369l1.26-.49v1.1l-3.65,2.11Z" style="fill:#fff;opacity:0.30000000000000004"></path><path d="M94.21,382.22a10.83,10.83,0,0,1-.7,4.14,4.75,4.75,0,0,1-1.92,2.4c-.81.47-1.45.4-1.92-.19a5.62,5.62,0,0,1-.71-3.32v-3a10.77,10.77,0,0,1,.7-4.13,4.69,4.69,0,0,1,1.92-2.41c.81-.47,1.45-.41,1.92.19a5.62,5.62,0,0,1,.71,3.32Zm-1.12-2.73a4.66,4.66,0,0,0-.38-2.25c-.26-.41-.64-.47-1.13-.18a2.67,2.67,0,0,0-1.12,1.47,8,8,0,0,0-.38,2.71V385a4.57,4.57,0,0,0,.39,2.26c.26.41.63.48,1.12.2a2.68,2.68,0,0,0,1.12-1.49,8,8,0,0,0,.38-2.71Z" style="fill:#fff"></path><path d="M89.88,406.32l1.27-1v-9.51l-1.3.78v-1.07l2.42-2.19V404.7l1.26-.49v1.1l-3.65,2.11Z" style="fill:#fff;opacity:0.30000000000000004"></path><path d="M94.21,417.93a10.77,10.77,0,0,1-.7,4.13,4.73,4.73,0,0,1-1.92,2.41c-.81.46-1.45.4-1.92-.19A5.62,5.62,0,0,1,89,421v-3a10.86,10.86,0,0,1,.7-4.14,4.73,4.73,0,0,1,1.92-2.41c.81-.46,1.45-.4,1.92.19a5.64,5.64,0,0,1,.71,3.32Zm-1.12-2.73a4.64,4.64,0,0,0-.38-2.25c-.26-.41-.64-.47-1.13-.18a2.67,2.67,0,0,0-1.12,1.47,7.93,7.93,0,0,0-.38,2.7v3.73a4.57,4.57,0,0,0,.39,2.26c.26.41.63.48,1.12.19a2.65,2.65,0,0,0,1.12-1.48,8,8,0,0,0,.38-2.72Z" style="fill:#fff"></path><path d="M78,195.21a10.74,10.74,0,0,1-.7,4.13,4.73,4.73,0,0,1-1.92,2.41c-.81.47-1.45.4-1.92-.19a5.62,5.62,0,0,1-.71-3.32v-3a11.06,11.06,0,0,1,.7-4.14,4.66,4.66,0,0,1,1.92-2.4c.81-.47,1.45-.41,1.92.19a5.6,5.6,0,0,1,.71,3.32Zm-1.11-2.73a4.52,4.52,0,0,0-.39-2.25c-.26-.41-.64-.47-1.13-.18a2.67,2.67,0,0,0-1.12,1.47,8.25,8.25,0,0,0-.38,2.71V198a4.57,4.57,0,0,0,.39,2.26c.26.41.63.48,1.12.2a2.71,2.71,0,0,0,1.12-1.49,8,8,0,0,0,.39-2.71Z" style="fill:#fff;opacity:0.30000000000000004"></path><path d="M73.63,219.31l1.27-1v-9.51l-1.29.78v-1.07L76,206.34v11.35l1.27-.49v1.1l-3.66,2.11Z" style="fill:#fff"></path><path d="M73.63,237.16l1.27-1v-9.51l-1.29.79v-1.08L76,224.19v11.35l1.27-.49v1.1l-3.66,2.11Z" style="fill:#fff;opacity:0.15"></path><path d="M73.63,255l1.27-1v-9.51l-1.29.78v-1.07L76,242v11.35l1.27-.48V254l-3.66,2.12Z" style="fill:#fff;opacity:0.30000000000000004"></path><path d="M78,266.63a10.77,10.77,0,0,1-.7,4.13,4.71,4.71,0,0,1-1.92,2.4c-.81.47-1.45.41-1.92-.19a5.58,5.58,0,0,1-.71-3.31v-3a11,11,0,0,1,.7-4.13,4.73,4.73,0,0,1,1.92-2.41c.81-.47,1.45-.4,1.92.19a5.64,5.64,0,0,1,.71,3.32Zm-1.11-2.73a4.57,4.57,0,0,0-.39-2.26c-.26-.4-.64-.46-1.13-.18a2.69,2.69,0,0,0-1.12,1.48,8.15,8.15,0,0,0-.38,2.7v3.72a4.61,4.61,0,0,0,.39,2.27c.26.41.63.47,1.12.19a2.65,2.65,0,0,0,1.12-1.48,8,8,0,0,0,.39-2.72Z" style="fill:#fff"></path><path d="M78,284.48a10.77,10.77,0,0,1-.7,4.13A4.73,4.73,0,0,1,75.34,291c-.81.46-1.45.4-1.92-.19a5.62,5.62,0,0,1-.71-3.32v-3a11.06,11.06,0,0,1,.7-4.14,4.66,4.66,0,0,1,1.92-2.4c.81-.47,1.45-.41,1.92.19a5.6,5.6,0,0,1,.71,3.32Zm-1.11-2.73a4.5,4.5,0,0,0-.39-2.25c-.26-.41-.64-.47-1.13-.18a2.67,2.67,0,0,0-1.12,1.47,8.23,8.23,0,0,0-.38,2.7v3.73a4.57,4.57,0,0,0,.39,2.26c.26.41.63.48,1.12.2a2.71,2.71,0,0,0,1.12-1.49,8,8,0,0,0,.39-2.71Z" style="fill:#fff;opacity:0.30000000000000004"></path><path d="M73.63,308.58l1.27-1v-9.51l-1.29.78V297.8L76,295.6V307l1.27-.49v1.1l-3.66,2.11Z" style="fill:#fff"></path><path d="M78,320.19a10.77,10.77,0,0,1-.7,4.13,4.73,4.73,0,0,1-1.92,2.41c-.81.46-1.45.4-1.92-.2a5.56,5.56,0,0,1-.71-3.31v-3a11,11,0,0,1,.7-4.13,4.73,4.73,0,0,1,1.92-2.41c.81-.47,1.45-.4,1.92.19a5.64,5.64,0,0,1,.71,3.32Zm-1.11-2.73a4.57,4.57,0,0,0-.39-2.26c-.26-.4-.64-.46-1.13-.18a2.69,2.69,0,0,0-1.12,1.48,8.15,8.15,0,0,0-.38,2.7v3.72a4.61,4.61,0,0,0,.39,2.27c.26.41.63.47,1.12.19a2.65,2.65,0,0,0,1.12-1.48,8,8,0,0,0,.39-2.72Z" style="fill:#fff;opacity:0.15"></path><path d="M73.63,344.29l1.27-1V333.8l-1.29.78v-1.07l2.41-2.2v11.35l1.27-.49v1.1l-3.66,2.11Z" style="fill:#fff;opacity:0.30000000000000004"></path><path d="M78,355.9a10.77,10.77,0,0,1-.7,4.13,4.75,4.75,0,0,1-1.92,2.4c-.81.47-1.45.41-1.92-.19a5.58,5.58,0,0,1-.71-3.31v-3a11,11,0,0,1,.7-4.13,4.73,4.73,0,0,1,1.92-2.41c.81-.47,1.45-.4,1.92.19a5.64,5.64,0,0,1,.71,3.32Zm-1.11-2.73a4.57,4.57,0,0,0-.39-2.26c-.26-.4-.64-.47-1.13-.18a2.66,2.66,0,0,0-1.12,1.48,8.15,8.15,0,0,0-.38,2.7v3.72a4.61,4.61,0,0,0,.39,2.27c.26.41.63.47,1.12.19a2.68,2.68,0,0,0,1.12-1.49,7.93,7.93,0,0,0,.39-2.71Z" style="fill:#fff;opacity:0.30000000000000004"></path><path d="M73.63,380l1.27-1V369.5l-1.29.79v-1.08L76,367v11.35l1.27-.49V379l-3.66,2.11Z" style="fill:#fff"></path><path d="M78,391.61a10.81,10.81,0,0,1-.7,4.13,4.75,4.75,0,0,1-1.92,2.4c-.81.47-1.45.4-1.92-.19a5.6,5.6,0,0,1-.71-3.32v-3a11,11,0,0,1,.7-4.13,4.69,4.69,0,0,1,1.92-2.41c.81-.47,1.45-.41,1.92.19A5.62,5.62,0,0,1,78,388.6Zm-1.11-2.74a4.52,4.52,0,0,0-.39-2.25c-.26-.41-.64-.47-1.13-.18a2.66,2.66,0,0,0-1.12,1.48,8.15,8.15,0,0,0-.38,2.7v3.72a4.57,4.57,0,0,0,.39,2.26c.26.41.63.48,1.12.2a2.68,2.68,0,0,0,1.12-1.49,7.93,7.93,0,0,0,.39-2.71Z" style="fill:#fff;opacity:0.30000000000000004"></path><path d="M78,409.46a10.77,10.77,0,0,1-.7,4.13,4.71,4.71,0,0,1-1.92,2.4c-.81.47-1.45.41-1.92-.19a5.58,5.58,0,0,1-.71-3.31v-3a11,11,0,0,1,.7-4.13,4.73,4.73,0,0,1,1.92-2.41c.81-.47,1.45-.4,1.92.19a5.64,5.64,0,0,1,.71,3.32Zm-1.11-2.73a4.57,4.57,0,0,0-.39-2.26c-.26-.4-.64-.46-1.13-.18a2.69,2.69,0,0,0-1.12,1.48,8.15,8.15,0,0,0-.38,2.7v3.72a4.61,4.61,0,0,0,.39,2.27c.26.41.63.47,1.12.19a2.65,2.65,0,0,0,1.12-1.48,8,8,0,0,0,.39-2.72Z" style="fill:#fff;opacity:0.15"></path><path d="M78,427.31a10.77,10.77,0,0,1-.7,4.13,4.73,4.73,0,0,1-1.92,2.41c-.81.46-1.45.4-1.92-.19a5.62,5.62,0,0,1-.71-3.32v-3a11,11,0,0,1,.7-4.13,4.73,4.73,0,0,1,1.92-2.41c.81-.46,1.45-.4,1.92.19a5.66,5.66,0,0,1,.71,3.33Zm-1.11-2.73a4.5,4.5,0,0,0-.39-2.25c-.26-.41-.64-.47-1.13-.18a2.67,2.67,0,0,0-1.12,1.47,8.23,8.23,0,0,0-.38,2.7v3.73a4.57,4.57,0,0,0,.39,2.26c.26.41.63.47,1.12.19A2.65,2.65,0,0,0,76.46,431a8,8,0,0,0,.39-2.72Z" style="fill:#fff;opacity:0.30000000000000004"></path><path d="M57.38,210.84l1.28-1v-9.51l-1.3.78v-1.07l2.41-2.2v11.35l1.27-.49v1.1l-3.66,2.11Z" style="fill:#fff"></path><path d="M57.38,228.69l1.28-1V218.2l-1.3.78v-1.07l2.41-2.19v11.35l1.27-.49v1.1l-3.66,2.11Z" style="fill:#fff;opacity:0.30000000000000004"></path><path d="M61.71,240.3a10.77,10.77,0,0,1-.7,4.13,4.73,4.73,0,0,1-1.92,2.41c-.81.46-1.45.4-1.92-.19a5.62,5.62,0,0,1-.71-3.32v-3a10.84,10.84,0,0,1,.71-4.13,4.67,4.67,0,0,1,1.91-2.41c.81-.46,1.45-.4,1.93.19a5.65,5.65,0,0,1,.7,3.32Zm-1.11-2.73a4.5,4.5,0,0,0-.39-2.25c-.26-.41-.64-.47-1.13-.19A2.73,2.73,0,0,0,58,236.61a8.23,8.23,0,0,0-.38,2.7V243A4.57,4.57,0,0,0,58,245.3c.26.41.63.47,1.12.19A2.66,2.66,0,0,0,60.22,244a8.28,8.28,0,0,0,.38-2.72Z" style="fill:#fff"></path><path d="M57.38,264.4l1.28-1v-9.51l-1.3.78v-1.07l2.41-2.2v11.35l1.27-.48v1.1l-3.66,2.11Z" style="fill:#fff;opacity:0.30000000000000004"></path><path d="M61.71,276a10.77,10.77,0,0,1-.7,4.13,4.73,4.73,0,0,1-1.92,2.41c-.81.46-1.45.4-1.92-.2a5.56,5.56,0,0,1-.71-3.31v-3a10.84,10.84,0,0,1,.71-4.13,4.67,4.67,0,0,1,1.91-2.41,1.35,1.35,0,0,1,1.93.19,5.65,5.65,0,0,1,.7,3.32Zm-1.11-2.73a4.57,4.57,0,0,0-.39-2.26c-.26-.4-.64-.46-1.13-.18A2.69,2.69,0,0,0,58,272.32a8.15,8.15,0,0,0-.38,2.7v3.72A4.61,4.61,0,0,0,58,281c.26.41.63.47,1.12.19a2.66,2.66,0,0,0,1.13-1.48A8.28,8.28,0,0,0,60.6,277Z" style="fill:#fff;opacity:0.15"></path><path d="M61.71,293.86A10.74,10.74,0,0,1,61,298a4.73,4.73,0,0,1-1.92,2.41c-.81.47-1.45.4-1.92-.19a5.62,5.62,0,0,1-.71-3.32v-3a10.85,10.85,0,0,1,.71-4.14,4.6,4.6,0,0,1,1.91-2.4c.81-.47,1.45-.41,1.93.19a5.61,5.61,0,0,1,.7,3.32Zm-1.11-2.73a4.52,4.52,0,0,0-.39-2.25c-.26-.41-.64-.47-1.13-.18A2.67,2.67,0,0,0,58,290.17a8.25,8.25,0,0,0-.38,2.71v3.72a4.57,4.57,0,0,0,.39,2.26c.26.41.63.48,1.12.2a2.72,2.72,0,0,0,1.13-1.49,8.25,8.25,0,0,0,.38-2.71Z" style="fill:#fff"></path><path d="M57.38,318l1.28-1v-9.51l-1.3.78v-1.07L59.77,305v11.35l1.27-.49V317l-3.66,2.11Z" style="fill:#fff;opacity:0.30000000000000004"></path><path d="M61.71,329.57a10.77,10.77,0,0,1-.7,4.13,4.73,4.73,0,0,1-1.92,2.41c-.81.46-1.45.4-1.92-.19a5.62,5.62,0,0,1-.71-3.32v-3a10.84,10.84,0,0,1,.71-4.13,4.67,4.67,0,0,1,1.91-2.41,1.35,1.35,0,0,1,1.93.19,5.65,5.65,0,0,1,.7,3.32Zm-1.11-2.73a4.57,4.57,0,0,0-.39-2.26c-.26-.4-.64-.46-1.13-.18A2.69,2.69,0,0,0,58,325.88a8.19,8.19,0,0,0-.38,2.7v3.73a4.59,4.59,0,0,0,.39,2.26c.26.41.63.47,1.12.19a2.66,2.66,0,0,0,1.13-1.48,8.28,8.28,0,0,0,.38-2.72Z" style="fill:#fff;opacity:0.30000000000000004"></path><path d="M61.71,347.43a10.77,10.77,0,0,1-.7,4.13,4.75,4.75,0,0,1-1.92,2.4c-.81.47-1.45.4-1.92-.19a5.58,5.58,0,0,1-.71-3.31v-3a10.8,10.8,0,0,1,.71-4.13,4.67,4.67,0,0,1,1.91-2.41c.81-.47,1.45-.41,1.93.19a5.63,5.63,0,0,1,.7,3.32ZM60.6,344.7a4.57,4.57,0,0,0-.39-2.26c-.26-.41-.64-.47-1.13-.18A2.66,2.66,0,0,0,58,343.74a8.15,8.15,0,0,0-.38,2.7v3.72a4.64,4.64,0,0,0,.39,2.27c.26.4.63.47,1.12.19a2.69,2.69,0,0,0,1.13-1.49,8.21,8.21,0,0,0,.38-2.71Z" style="fill:#fff"></path><path d="M57.38,371.52l1.28-1V361l-1.3.79v-1.08l2.41-2.19V369.9l1.27-.49v1.1l-3.66,2.11Z" style="fill:#fff;opacity:0.30000000000000004"></path><path d="M57.38,389.37l1.28-1v-9.52l-1.3.79V378.6l2.41-2.2v11.35l1.27-.49v1.1l-3.66,2.11Z" style="fill:#fff;opacity:0.15"></path><path d="M61.71,401a10.77,10.77,0,0,1-.7,4.13,4.75,4.75,0,0,1-1.92,2.4c-.81.47-1.45.4-1.92-.19a5.58,5.58,0,0,1-.71-3.31v-3a10.8,10.8,0,0,1,.71-4.13,4.67,4.67,0,0,1,1.91-2.41,1.35,1.35,0,0,1,1.93.19,5.63,5.63,0,0,1,.7,3.32Zm-1.11-2.73a4.57,4.57,0,0,0-.39-2.26c-.26-.4-.64-.47-1.13-.18A2.66,2.66,0,0,0,58,397.3a8.15,8.15,0,0,0-.38,2.7v3.72A4.61,4.61,0,0,0,58,406c.26.41.63.47,1.12.19a2.69,2.69,0,0,0,1.13-1.49A8.21,8.21,0,0,0,60.6,402Z" style="fill:#fff;opacity:0.30000000000000004"></path><path d="M57.38,425.08l1.28-1v-9.51l-1.3.79V414.3l2.41-2.19v11.35L61,423v1.1l-3.66,2.11Z" style="fill:#fff"></path><path d="M61.71,436.69a10.83,10.83,0,0,1-.7,4.14,4.75,4.75,0,0,1-1.92,2.4c-.81.47-1.45.4-1.92-.19a5.58,5.58,0,0,1-.71-3.31v-3a10.89,10.89,0,0,1,.71-4.14,4.64,4.64,0,0,1,1.91-2.4c.81-.47,1.45-.41,1.93.19a5.63,5.63,0,0,1,.7,3.32ZM60.6,434a4.57,4.57,0,0,0-.39-2.26c-.26-.41-.64-.47-1.13-.18A2.66,2.66,0,0,0,58,433a8.15,8.15,0,0,0-.38,2.7v3.72a4.57,4.57,0,0,0,.39,2.26c.26.41.63.48,1.12.2a2.69,2.69,0,0,0,1.13-1.49,8.21,8.21,0,0,0,.38-2.71Z" style="fill:#fff;opacity:0.30000000000000004"></path><path d="M137.89,164.35l1.27-1v-9.52l-1.29.79v-1.07l2.41-2.2v11.35l1.27-.49v1.1l-3.66,2.11Z" style="fill:#fff"></path><path d="M142.22,176a10.77,10.77,0,0,1-.7,4.13,4.75,4.75,0,0,1-1.92,2.4c-.81.47-1.45.4-1.92-.19A5.58,5.58,0,0,1,137,179v-3a11,11,0,0,1,.7-4.13,4.73,4.73,0,0,1,1.92-2.41c.81-.47,1.45-.41,1.92.19a5.55,5.55,0,0,1,.71,3.32Zm-1.11-2.73a4.57,4.57,0,0,0-.39-2.26c-.26-.4-.64-.47-1.13-.18a2.66,2.66,0,0,0-1.12,1.48,8.15,8.15,0,0,0-.38,2.7v3.72a4.64,4.64,0,0,0,.39,2.27c.26.41.63.47,1.12.19a2.63,2.63,0,0,0,1.12-1.49,7.93,7.93,0,0,0,.39-2.71Z" style="fill:#fff;opacity:0.15"></path><path d="M137.89,200.06l1.27-1v-9.51l-1.29.79v-1.08l2.41-2.19v11.35l1.27-.49v1.1l-3.66,2.11Z" style="fill:#fff"></path><path d="M142.22,211.67a10.83,10.83,0,0,1-.7,4.14,4.75,4.75,0,0,1-1.92,2.4c-.81.47-1.45.4-1.92-.19a5.6,5.6,0,0,1-.71-3.32v-3a11,11,0,0,1,.7-4.13,4.69,4.69,0,0,1,1.92-2.41c.81-.47,1.45-.41,1.92.19a5.55,5.55,0,0,1,.71,3.32Zm-1.11-2.73a4.52,4.52,0,0,0-.39-2.25c-.26-.41-.64-.47-1.13-.18a2.66,2.66,0,0,0-1.12,1.48,8.15,8.15,0,0,0-.38,2.7v3.72a4.57,4.57,0,0,0,.39,2.26c.26.41.63.48,1.12.2a2.63,2.63,0,0,0,1.12-1.49,7.93,7.93,0,0,0,.39-2.71Z" style="fill:#fff;opacity:0.30000000000000004"></path><path d="M137.89,235.77l1.27-1v-9.51l-1.29.78V225l2.41-2.19v11.35l1.27-.49v1.1l-3.66,2.11Z" style="fill:#fff;opacity:0.30000000000000004"></path><path d="M142.22,318.8a10.77,10.77,0,0,1-.7,4.13,4.75,4.75,0,0,1-1.92,2.4c-.81.47-1.45.41-1.92-.19a5.58,5.58,0,0,1-.71-3.31v-3a11,11,0,0,1,.7-4.13,4.73,4.73,0,0,1,1.92-2.41c.81-.47,1.45-.4,1.92.19a5.57,5.57,0,0,1,.71,3.32Zm-1.11-2.73a4.57,4.57,0,0,0-.39-2.26c-.26-.4-.64-.47-1.13-.18a2.66,2.66,0,0,0-1.12,1.48,8.15,8.15,0,0,0-.38,2.7v3.72a4.61,4.61,0,0,0,.39,2.27c.26.41.63.47,1.12.19a2.63,2.63,0,0,0,1.12-1.49,7.93,7.93,0,0,0,.39-2.71Z" style="fill:#fff;opacity:0.15"></path><path d="M137.89,342.89l1.27-1V332.4l-1.29.79v-1.08l2.41-2.19v11.35l1.27-.49v1.1L137.89,344Z" style="fill:#fff;opacity:0.30000000000000004"></path><path d="M142.22,354.51a10.81,10.81,0,0,1-.7,4.13,4.75,4.75,0,0,1-1.92,2.4c-.81.47-1.45.4-1.92-.19a5.6,5.6,0,0,1-.71-3.32v-3a11,11,0,0,1,.7-4.13,4.69,4.69,0,0,1,1.92-2.41c.81-.47,1.45-.41,1.92.19a5.55,5.55,0,0,1,.71,3.32Zm-1.11-2.74a4.52,4.52,0,0,0-.39-2.25c-.26-.41-.64-.47-1.13-.18a2.66,2.66,0,0,0-1.12,1.48,8.15,8.15,0,0,0-.38,2.7v3.72a4.57,4.57,0,0,0,.39,2.26c.26.41.63.48,1.12.2a2.63,2.63,0,0,0,1.12-1.49,7.93,7.93,0,0,0,.39-2.71Z" style="fill:#fff"></path><path d="M137.89,378.6l1.27-1v-9.51l-1.29.78v-1.07l2.41-2.19V377l1.27-.49v1.1l-3.66,2.11Z" style="fill:#fff;opacity:0.30000000000000004"></path><path d="M142.22,390.21a10.74,10.74,0,0,1-.7,4.13,4.73,4.73,0,0,1-1.92,2.41c-.81.46-1.45.4-1.92-.19a5.62,5.62,0,0,1-.71-3.32v-3a11.06,11.06,0,0,1,.7-4.14,4.66,4.66,0,0,1,1.92-2.4c.81-.47,1.45-.41,1.92.19a5.51,5.51,0,0,1,.71,3.31Zm-1.11-2.73a4.5,4.5,0,0,0-.39-2.25c-.26-.41-.64-.47-1.13-.18a2.67,2.67,0,0,0-1.12,1.47,8.23,8.23,0,0,0-.38,2.7V393a4.57,4.57,0,0,0,.39,2.26c.26.41.63.48,1.12.2a2.67,2.67,0,0,0,1.12-1.49,8,8,0,0,0,.39-2.72Z" style="fill:#fff;opacity:0.30000000000000004"></path><path d="M126,167.49a10.83,10.83,0,0,1-.7,4.14,4.75,4.75,0,0,1-1.92,2.4,1.34,1.34,0,0,1-1.92-.19,5.63,5.63,0,0,1-.7-3.32v-3a10.86,10.86,0,0,1,.7-4.14,4.69,4.69,0,0,1,1.91-2.4c.81-.47,1.45-.41,1.93.19a5.61,5.61,0,0,1,.7,3.32Zm-1.11-2.73a4.52,4.52,0,0,0-.39-2.25c-.26-.41-.63-.47-1.13-.18a2.61,2.61,0,0,0-1.11,1.47,8,8,0,0,0-.39,2.71v3.72a4.57,4.57,0,0,0,.39,2.26.73.73,0,0,0,1.12.2,2.69,2.69,0,0,0,1.13-1.49,8.21,8.21,0,0,0,.38-2.71Z" style="fill:#fff;opacity:0.15"></path><path d="M121.64,191.59l1.28-1V181.1l-1.3.78v-1.07l2.41-2.19V190l1.27-.49v1.1l-3.66,2.11Z" style="fill:#fff"></path><path d="M121.64,209.44l1.28-1V199l-1.3.79v-1.08l2.41-2.19v11.35l1.27-.49v1.1l-3.66,2.11Z" style="fill:#fff;opacity:0.15"></path><path d="M121.64,227.3l1.28-1v-9.51l-1.3.78v-1.07l2.41-2.2v11.36l1.27-.49v1.1l-3.66,2.11Z" style="fill:#fff;opacity:0.30000000000000004"></path><path d="M126,238.91a10.77,10.77,0,0,1-.7,4.13,4.73,4.73,0,0,1-1.92,2.41c-.81.46-1.44.4-1.92-.2a5.58,5.58,0,0,1-.7-3.31v-3a10.84,10.84,0,0,1,.7-4.13,4.72,4.72,0,0,1,1.91-2.41,1.35,1.35,0,0,1,1.93.19,5.65,5.65,0,0,1,.7,3.32Zm-1.11-2.73a4.57,4.57,0,0,0-.39-2.26c-.26-.4-.63-.46-1.13-.18a2.64,2.64,0,0,0-1.11,1.48,7.87,7.87,0,0,0-.39,2.7v3.72a4.61,4.61,0,0,0,.39,2.27c.26.41.64.47,1.12.19a2.66,2.66,0,0,0,1.13-1.48,8.28,8.28,0,0,0,.38-2.72Z" style="fill:#fff"></path><path d="M126,328.18a10.77,10.77,0,0,1-.7,4.13,4.71,4.71,0,0,1-1.92,2.4c-.81.47-1.44.41-1.92-.19a5.6,5.6,0,0,1-.7-3.31v-3a10.84,10.84,0,0,1,.7-4.13,4.72,4.72,0,0,1,1.91-2.41,1.35,1.35,0,0,1,1.93.19,5.65,5.65,0,0,1,.7,3.32Zm-1.11-2.73a4.57,4.57,0,0,0-.39-2.26c-.26-.4-.63-.46-1.13-.18a2.64,2.64,0,0,0-1.11,1.48,7.87,7.87,0,0,0-.39,2.7v3.72a4.61,4.61,0,0,0,.39,2.27c.26.41.64.47,1.12.19a2.65,2.65,0,0,0,1.13-1.49,8.17,8.17,0,0,0,.38-2.71Z" style="fill:#fff;opacity:0.30000000000000004"></path><path d="M121.64,352.27l1.28-1v-9.51l-1.3.79v-1.08L124,339.3v11.35l1.27-.49v1.1l-3.66,2.11Z" style="fill:#fff"></path><path d="M126,363.89a10.81,10.81,0,0,1-.7,4.13,4.75,4.75,0,0,1-1.92,2.4,1.34,1.34,0,0,1-1.92-.19,5.61,5.61,0,0,1-.7-3.32v-3a10.81,10.81,0,0,1,.7-4.13,4.68,4.68,0,0,1,1.91-2.41c.81-.47,1.45-.41,1.93.19a5.63,5.63,0,0,1,.7,3.32Zm-1.11-2.73a4.57,4.57,0,0,0-.39-2.26c-.26-.4-.63-.47-1.13-.18a2.6,2.6,0,0,0-1.11,1.48,7.87,7.87,0,0,0-.39,2.7v3.72a4.57,4.57,0,0,0,.39,2.26c.26.42.64.48,1.12.2a2.69,2.69,0,0,0,1.13-1.49,8.21,8.21,0,0,0,.38-2.71Z" style="fill:#fff;opacity:0.30000000000000004"></path><path d="M126,381.74a10.77,10.77,0,0,1-.7,4.13,4.71,4.71,0,0,1-1.92,2.4c-.81.47-1.44.41-1.92-.19a5.6,5.6,0,0,1-.7-3.31v-3a10.84,10.84,0,0,1,.7-4.13,4.72,4.72,0,0,1,1.91-2.41,1.35,1.35,0,0,1,1.93.19,5.65,5.65,0,0,1,.7,3.32ZM124.86,379a4.57,4.57,0,0,0-.39-2.26c-.26-.4-.63-.46-1.13-.18a2.64,2.64,0,0,0-1.11,1.48,7.87,7.87,0,0,0-.39,2.7v3.72a4.61,4.61,0,0,0,.39,2.27c.26.41.64.47,1.12.19a2.66,2.66,0,0,0,1.13-1.48,8.28,8.28,0,0,0,.38-2.72Z" style="fill:#fff;opacity:0.15"></path><path d="M126,399.59a10.77,10.77,0,0,1-.7,4.13,4.73,4.73,0,0,1-1.92,2.41c-.81.46-1.44.4-1.92-.19a5.63,5.63,0,0,1-.7-3.32v-3a10.84,10.84,0,0,1,.7-4.13,4.65,4.65,0,0,1,1.91-2.4c.81-.47,1.45-.41,1.93.19a5.61,5.61,0,0,1,.7,3.32Zm-1.11-2.73a4.5,4.5,0,0,0-.39-2.25c-.26-.41-.63-.47-1.13-.18a2.61,2.61,0,0,0-1.11,1.47,8,8,0,0,0-.39,2.7v3.73a4.57,4.57,0,0,0,.39,2.26.73.73,0,0,0,1.12.2,2.72,2.72,0,0,0,1.13-1.49,8.25,8.25,0,0,0,.38-2.71Z" style="fill:#fff"></path><path d="M105.39,183.12l1.28-1v-9.51l-1.3.78v-1.07l2.41-2.2v11.35l1.27-.49v1.1l-3.66,2.12Z" style="fill:#fff"></path><path d="M105.39,201l1.28-1v-9.51l-1.3.78v-1.07l2.41-2.19v11.35l1.27-.49V200l-3.66,2.11Z" style="fill:#fff;opacity:0.30000000000000004"></path><path d="M109.73,212.58a10.76,10.76,0,0,1-.71,4.13,4.68,4.68,0,0,1-1.92,2.41,1.35,1.35,0,0,1-1.92-.19,5.63,5.63,0,0,1-.7-3.32v-3a10.84,10.84,0,0,1,.7-4.13,4.77,4.77,0,0,1,1.91-2.41c.81-.46,1.46-.4,1.93.2a5.58,5.58,0,0,1,.71,3.31Zm-1.12-2.73a4.5,4.5,0,0,0-.39-2.25c-.26-.41-.63-.47-1.13-.18a2.66,2.66,0,0,0-1.11,1.47,8,8,0,0,0-.39,2.7v3.73a4.57,4.57,0,0,0,.39,2.26.73.73,0,0,0,1.12.2,2.72,2.72,0,0,0,1.13-1.49,8.28,8.28,0,0,0,.38-2.72Z" style="fill:#fff"></path><path d="M105.39,236.68l1.28-1v-9.51l-1.3.78V225.9l2.41-2.2v11.36l1.27-.49v1.1l-3.66,2.11Z" style="fill:#fff;opacity:0.30000000000000004"></path><path d="M109.73,248.29a10.76,10.76,0,0,1-.71,4.13,4.68,4.68,0,0,1-1.92,2.41,1.34,1.34,0,0,1-1.92-.2,5.58,5.58,0,0,1-.7-3.31v-3a10.84,10.84,0,0,1,.7-4.13,4.77,4.77,0,0,1,1.91-2.41A1.35,1.35,0,0,1,109,242a5.64,5.64,0,0,1,.71,3.32Zm-1.12-2.73a4.57,4.57,0,0,0-.39-2.26c-.26-.4-.63-.46-1.13-.18A2.68,2.68,0,0,0,106,244.6a7.87,7.87,0,0,0-.39,2.7V251a4.59,4.59,0,0,0,.39,2.26c.26.41.64.47,1.12.19a2.66,2.66,0,0,0,1.13-1.48,8.28,8.28,0,0,0,.38-2.72Z" style="fill:#fff;opacity:0.15"></path><path d="M109.73,266.14a10.82,10.82,0,0,1-.71,4.14,4.7,4.7,0,0,1-1.92,2.4,1.34,1.34,0,0,1-1.92-.19,5.63,5.63,0,0,1-.7-3.32v-3a10.86,10.86,0,0,1,.7-4.14,4.74,4.74,0,0,1,1.91-2.4c.81-.47,1.46-.41,1.93.19a5.6,5.6,0,0,1,.71,3.32Zm-1.12-2.73a4.52,4.52,0,0,0-.39-2.25c-.26-.41-.63-.47-1.13-.18a2.66,2.66,0,0,0-1.11,1.47,8,8,0,0,0-.39,2.71v3.72a4.57,4.57,0,0,0,.39,2.26.73.73,0,0,0,1.12.2,2.69,2.69,0,0,0,1.13-1.49,8.21,8.21,0,0,0,.38-2.71Z" style="fill:#fff"></path><path d="M105.39,290.24l1.28-1v-9.51l-1.3.78v-1.07l2.41-2.19v11.35l1.27-.49v1.1l-3.66,2.11Z" style="fill:#fff;opacity:0.30000000000000004"></path><path d="M109.73,301.85A10.76,10.76,0,0,1,109,306a4.68,4.68,0,0,1-1.92,2.41,1.35,1.35,0,0,1-1.92-.19,5.63,5.63,0,0,1-.7-3.32v-3a10.84,10.84,0,0,1,.7-4.13,4.77,4.77,0,0,1,1.91-2.41c.81-.46,1.46-.4,1.93.19a5.64,5.64,0,0,1,.71,3.32Zm-1.12-2.73a4.5,4.5,0,0,0-.39-2.25c-.26-.41-.63-.47-1.13-.19a2.72,2.72,0,0,0-1.11,1.48,7.91,7.91,0,0,0-.39,2.7v3.73a4.57,4.57,0,0,0,.39,2.26c.26.41.64.47,1.12.2a2.72,2.72,0,0,0,1.13-1.49,8.28,8.28,0,0,0,.38-2.72Z" style="fill:#fff;opacity:0.30000000000000004"></path><path d="M109.73,319.71a10.76,10.76,0,0,1-.71,4.13,4.7,4.7,0,0,1-1.92,2.4,1.34,1.34,0,0,1-1.92-.19,5.6,5.6,0,0,1-.7-3.31v-3a10.81,10.81,0,0,1,.7-4.13,4.77,4.77,0,0,1,1.91-2.41c.81-.47,1.46-.41,1.93.19a5.62,5.62,0,0,1,.71,3.32ZM108.61,317a4.57,4.57,0,0,0-.39-2.26c-.26-.41-.63-.47-1.13-.18A2.65,2.65,0,0,0,106,316a7.87,7.87,0,0,0-.39,2.7v3.72a4.64,4.64,0,0,0,.39,2.27.74.74,0,0,0,1.12.19,2.69,2.69,0,0,0,1.13-1.49,8.21,8.21,0,0,0,.38-2.71Z" style="fill:#fff"></path><path d="M105.39,343.8l1.28-1v-9.51l-1.3.79V333l2.41-2.19v11.35l1.27-.49v1.1l-3.66,2.11Z" style="fill:#fff;opacity:0.30000000000000004"></path><path d="M105.39,361.66l1.28-1v-9.51l-1.3.78v-1.07l2.41-2.2V360l1.27-.49v1.1l-3.66,2.11Z" style="fill:#fff;opacity:0.15"></path><path d="M109.73,373.27a10.76,10.76,0,0,1-.71,4.13,4.7,4.7,0,0,1-1.92,2.4,1.33,1.33,0,0,1-1.92-.19,5.6,5.6,0,0,1-.7-3.31v-3a10.81,10.81,0,0,1,.7-4.13,4.77,4.77,0,0,1,1.91-2.41,1.35,1.35,0,0,1,1.93.19,5.64,5.64,0,0,1,.71,3.32Zm-1.12-2.73a4.57,4.57,0,0,0-.39-2.26c-.26-.4-.63-.47-1.13-.18a2.65,2.65,0,0,0-1.11,1.48,7.87,7.87,0,0,0-.39,2.7V376a4.61,4.61,0,0,0,.39,2.27c.26.41.64.47,1.12.19a2.69,2.69,0,0,0,1.13-1.49,8.21,8.21,0,0,0,.38-2.71Z" style="fill:#fff;opacity:0.30000000000000004"></path><path d="M105.39,397.36l1.28-1v-9.51l-1.3.79v-1.08l2.41-2.19v11.35l1.27-.49v1.1l-3.66,2.11Z" style="fill:#fff"></path><path d="M109.73,409a10.76,10.76,0,0,1-.71,4.13,4.7,4.7,0,0,1-1.92,2.4,1.34,1.34,0,0,1-1.92-.19,5.6,5.6,0,0,1-.7-3.31v-3a10.81,10.81,0,0,1,.7-4.13,4.77,4.77,0,0,1,1.91-2.41c.81-.47,1.46-.41,1.93.19a5.62,5.62,0,0,1,.71,3.32Zm-1.12-2.73a4.57,4.57,0,0,0-.39-2.26c-.26-.41-.63-.47-1.13-.18a2.65,2.65,0,0,0-1.11,1.48,7.87,7.87,0,0,0-.39,2.7v3.72A4.64,4.64,0,0,0,106,414a.74.74,0,0,0,1.12.19,2.69,2.69,0,0,0,1.13-1.49,8.21,8.21,0,0,0,.38-2.71Z" style="fill:#fff;opacity:0.30000000000000004"></path><path d="M154.14,155l1.27-1v-9.51l-1.29.79v-1.08l2.41-2.19v11.35l1.27-.49V154l-3.66,2.11Z" style="fill:#fff;opacity:0.30000000000000004"></path><path d="M158.47,166.58a10.77,10.77,0,0,1-.7,4.13,4.73,4.73,0,0,1-1.92,2.41c-.81.46-1.45.4-1.92-.19a5.62,5.62,0,0,1-.71-3.32v-3a11.06,11.06,0,0,1,.7-4.14,4.66,4.66,0,0,1,1.92-2.4c.81-.47,1.45-.41,1.92.19a5.6,5.6,0,0,1,.71,3.32Zm-1.11-2.73a4.61,4.61,0,0,0-.39-2.25c-.26-.41-.64-.47-1.13-.18a2.67,2.67,0,0,0-1.12,1.47,8,8,0,0,0-.38,2.7v3.73a4.57,4.57,0,0,0,.39,2.26c.26.41.63.48,1.12.2a2.71,2.71,0,0,0,1.12-1.49,8,8,0,0,0,.39-2.71Z" style="fill:#fff"></path><path d="M154.14,190.68l1.27-1v-9.51l-1.29.78V179.9l2.41-2.2v11.36l1.27-.49v1.1l-3.66,2.11Z" style="fill:#fff;opacity:0.30000000000000004"></path><path d="M158.47,202.29a10.77,10.77,0,0,1-.7,4.13,4.73,4.73,0,0,1-1.92,2.41c-.81.46-1.45.4-1.92-.19a5.62,5.62,0,0,1-.71-3.32v-3a11,11,0,0,1,.7-4.13,4.73,4.73,0,0,1,1.92-2.41c.81-.46,1.45-.4,1.92.19a5.64,5.64,0,0,1,.71,3.32Zm-1.11-2.73a4.61,4.61,0,0,0-.39-2.25c-.26-.41-.64-.47-1.13-.19a2.73,2.73,0,0,0-1.12,1.48,8,8,0,0,0-.38,2.7V205a4.59,4.59,0,0,0,.39,2.26c.26.41.63.48,1.12.19A2.65,2.65,0,0,0,157,206a8,8,0,0,0,.39-2.72Z" style="fill:#fff;opacity:0.30000000000000004"></path><path d="M154.14,226.39l1.27-1V215.9l-1.29.78v-1.07l2.41-2.2v11.35l1.27-.49v1.1l-3.66,2.12Z" style="fill:#fff"></path><path d="M158.47,309.41a10.74,10.74,0,0,1-.7,4.13,4.73,4.73,0,0,1-1.92,2.41c-.81.47-1.45.4-1.92-.19a5.62,5.62,0,0,1-.71-3.32v-3a11.06,11.06,0,0,1,.7-4.14,4.71,4.71,0,0,1,1.92-2.4c.81-.47,1.45-.41,1.92.19a5.62,5.62,0,0,1,.71,3.32Zm-1.11-2.73a4.64,4.64,0,0,0-.39-2.25c-.26-.41-.64-.47-1.13-.18a2.67,2.67,0,0,0-1.12,1.47,8,8,0,0,0-.38,2.71v3.72a4.57,4.57,0,0,0,.39,2.26c.26.41.63.48,1.12.2a2.68,2.68,0,0,0,1.12-1.49,8,8,0,0,0,.39-2.71Z" style="fill:#fff;opacity:0.15"></path><path d="M154.14,333.51l1.27-1V323l-1.29.78v-1.07l2.41-2.19v11.35l1.27-.49v1.1l-3.66,2.11Z" style="fill:#fff;opacity:0.30000000000000004"></path><path d="M158.47,345.12a10.77,10.77,0,0,1-.7,4.13,4.73,4.73,0,0,1-1.92,2.41c-.81.46-1.45.4-1.92-.19a5.62,5.62,0,0,1-.71-3.32v-3a11.06,11.06,0,0,1,.7-4.14,4.73,4.73,0,0,1,1.92-2.41c.81-.46,1.45-.4,1.92.19a5.64,5.64,0,0,1,.71,3.32Zm-1.11-2.73a4.61,4.61,0,0,0-.39-2.25c-.26-.41-.64-.47-1.13-.19a2.73,2.73,0,0,0-1.12,1.48,7.93,7.93,0,0,0-.38,2.7v3.73a4.57,4.57,0,0,0,.39,2.26c.26.41.63.48,1.12.19a2.65,2.65,0,0,0,1.12-1.48,8,8,0,0,0,.39-2.72Z" style="fill:#fff;opacity:0.30000000000000004"></path><path d="M154.14,369.22l1.27-1v-9.51l-1.29.78v-1.07l2.41-2.2v11.35l1.27-.49v1.1l-3.66,2.12Z" style="fill:#fff;opacity:0.30000000000000004"></path><path d="M158.47,380.83a10.77,10.77,0,0,1-.7,4.13,4.71,4.71,0,0,1-1.92,2.4c-.81.47-1.45.41-1.92-.19a5.58,5.58,0,0,1-.71-3.31v-3a11,11,0,0,1,.7-4.13,4.73,4.73,0,0,1,1.92-2.41c.81-.47,1.45-.4,1.92.19a5.64,5.64,0,0,1,.71,3.32Zm-1.11-2.73a4.69,4.69,0,0,0-.39-2.26c-.26-.4-.64-.46-1.13-.18a2.69,2.69,0,0,0-1.12,1.48,7.89,7.89,0,0,0-.38,2.7v3.72a4.61,4.61,0,0,0,.39,2.27c.26.41.63.47,1.12.19a2.64,2.64,0,0,0,1.12-1.49,7.89,7.89,0,0,0,.39-2.71Z" style="fill:#fff"></path><path d="M203,126.78l1.27-1v-9.51l-1.3.79V116l2.42-2.19v11.35l1.26-.49v1.1L203,127.88Z" style="fill:#fff;opacity:0.15"></path><path d="M207.3,138.39a10.93,10.93,0,0,1-.7,4.13,4.73,4.73,0,0,1-1.92,2.41c-.81.47-1.45.4-1.92-.19a5.62,5.62,0,0,1-.71-3.32v-3a10.86,10.86,0,0,1,.7-4.14,4.7,4.7,0,0,1,1.91-2.4c.82-.47,1.46-.41,1.93.19a5.6,5.6,0,0,1,.71,3.32Zm-1.12-2.73a4.66,4.66,0,0,0-.38-2.25q-.39-.61-1.14-.18a2.7,2.7,0,0,0-1.11,1.47,8,8,0,0,0-.39,2.71v3.72a4.54,4.54,0,0,0,.4,2.26c.26.41.63.48,1.12.2a2.71,2.71,0,0,0,1.12-1.49,8,8,0,0,0,.38-2.71Z" style="fill:#fff;opacity:0.15"></path><path d="M203,162.49l1.27-1V152l-1.3.78v-1.07l2.42-2.19v11.35l1.26-.49v1.1L203,163.59Z" style="fill:#fff"></path><path d="M207.3,174.1a11,11,0,0,1-.7,4.13,4.73,4.73,0,0,1-1.92,2.41c-.81.46-1.45.4-1.92-.19a5.62,5.62,0,0,1-.71-3.32v-3a10.86,10.86,0,0,1,.7-4.14,4.7,4.7,0,0,1,1.91-2.4c.82-.47,1.46-.41,1.93.19a5.6,5.6,0,0,1,.71,3.32Zm-1.12-2.73a4.64,4.64,0,0,0-.38-2.25q-.39-.62-1.14-.18a2.7,2.7,0,0,0-1.11,1.47,8,8,0,0,0-.39,2.7v3.73a4.54,4.54,0,0,0,.4,2.26c.26.41.63.48,1.12.2a2.71,2.71,0,0,0,1.12-1.49,8,8,0,0,0,.38-2.72Z" style="fill:#fff;opacity:0.30000000000000004"></path><path d="M203,198.2l1.27-1v-9.51l-1.3.78v-1.07l2.42-2.2v11.35l1.26-.48v1.09L203,199.3Z" style="fill:#fff;opacity:0.30000000000000004"></path><path d="M207.3,281.23a11,11,0,0,1-.7,4.13,4.75,4.75,0,0,1-1.92,2.4c-.81.47-1.45.4-1.92-.19a5.6,5.6,0,0,1-.71-3.32v-3a10.81,10.81,0,0,1,.7-4.13,4.73,4.73,0,0,1,1.91-2.41c.82-.47,1.46-.41,1.93.19a5.62,5.62,0,0,1,.71,3.32Zm-1.12-2.74a4.66,4.66,0,0,0-.38-2.25q-.39-.62-1.14-.18a2.7,2.7,0,0,0-1.11,1.47,8,8,0,0,0-.39,2.71V284a4.54,4.54,0,0,0,.4,2.26c.26.41.63.48,1.12.2a2.68,2.68,0,0,0,1.12-1.49,8,8,0,0,0,.38-2.71Z" style="fill:#fff;opacity:0.15"></path><path d="M203,305.32l1.27-1v-9.51l-1.3.78v-1.07l2.42-2.19V303.7l1.26-.49v1.1L203,306.42Z" style="fill:#fff;opacity:0.30000000000000004"></path><path d="M207.3,316.93a11,11,0,0,1-.7,4.13,4.73,4.73,0,0,1-1.92,2.41c-.81.46-1.45.4-1.92-.19a5.62,5.62,0,0,1-.71-3.32v-3a10.86,10.86,0,0,1,.7-4.14,4.7,4.7,0,0,1,1.91-2.4c.82-.47,1.46-.41,1.93.19a5.58,5.58,0,0,1,.71,3.31Zm-1.12-2.73a4.64,4.64,0,0,0-.38-2.25q-.39-.61-1.14-.18a2.7,2.7,0,0,0-1.11,1.47,8,8,0,0,0-.39,2.7v3.73a4.54,4.54,0,0,0,.4,2.26c.26.41.63.48,1.12.2a2.71,2.71,0,0,0,1.12-1.49,8,8,0,0,0,.38-2.72Z" style="fill:#fff"></path><path d="M203,341l1.27-1v-9.51l-1.3.78v-1.07l2.42-2.2V339.4l1.26-.48V340L203,342.13Z" style="fill:#fff;opacity:0.30000000000000004"></path><path d="M207.3,352.64a11,11,0,0,1-.7,4.13,4.73,4.73,0,0,1-1.92,2.41c-.81.46-1.45.4-1.92-.2a5.56,5.56,0,0,1-.71-3.31v-3a10.84,10.84,0,0,1,.7-4.13,4.77,4.77,0,0,1,1.91-2.41c.82-.47,1.46-.4,1.93.19a5.64,5.64,0,0,1,.71,3.32Zm-1.12-2.73a4.71,4.71,0,0,0-.38-2.26q-.39-.6-1.14-.18a2.73,2.73,0,0,0-1.11,1.48,7.87,7.87,0,0,0-.39,2.7v3.72a4.59,4.59,0,0,0,.4,2.27c.26.41.63.47,1.12.19a2.65,2.65,0,0,0,1.12-1.48,8,8,0,0,0,.38-2.72Z" style="fill:#fff"></path><path d="M191.05,129.92a10.77,10.77,0,0,1-.7,4.13,4.73,4.73,0,0,1-1.92,2.41c-.81.46-1.45.4-1.92-.19a5.62,5.62,0,0,1-.71-3.32v-3a11,11,0,0,1,.7-4.13,4.73,4.73,0,0,1,1.92-2.41c.81-.46,1.45-.4,1.92.19a5.64,5.64,0,0,1,.71,3.32Zm-1.11-2.73a4.5,4.5,0,0,0-.39-2.25c-.26-.41-.64-.47-1.13-.19a2.73,2.73,0,0,0-1.12,1.48,7.93,7.93,0,0,0-.38,2.7v3.73a4.57,4.57,0,0,0,.39,2.26c.26.41.63.48,1.12.19a2.65,2.65,0,0,0,1.12-1.48,8,8,0,0,0,.39-2.72Z" style="fill:#fff;opacity:0.30000000000000004"></path><path d="M186.72,154l1.27-1v-9.51l-1.29.78v-1.07l2.41-2.2v11.35l1.27-.49V153l-3.66,2.12Z" style="fill:#fff"></path><path d="M186.72,171.87l1.27-1v-9.51l-1.29.78v-1.07l2.41-2.19v11.35l1.27-.49v1.1L186.72,173Z" style="fill:#fff;opacity:0.15"></path><path d="M186.72,189.72l1.27-1v-9.51l-1.29.78V179l2.41-2.2V188.1l1.27-.49v1.1l-3.66,2.11Z" style="fill:#fff;opacity:0.30000000000000004"></path><path d="M191.05,201.34a10.77,10.77,0,0,1-.7,4.13,4.75,4.75,0,0,1-1.92,2.4c-.81.47-1.45.4-1.92-.19a5.58,5.58,0,0,1-.71-3.31v-3a11,11,0,0,1,.7-4.13,4.73,4.73,0,0,1,1.92-2.41c.81-.47,1.45-.41,1.92.19a5.62,5.62,0,0,1,.71,3.32Zm-1.11-2.73a4.57,4.57,0,0,0-.39-2.26c-.26-.4-.64-.47-1.13-.18a2.66,2.66,0,0,0-1.12,1.48,7.89,7.89,0,0,0-.38,2.7v3.72a4.61,4.61,0,0,0,.39,2.27c.26.41.63.47,1.12.19a2.68,2.68,0,0,0,1.12-1.49,7.93,7.93,0,0,0,.39-2.71Z" style="fill:#fff"></path><path d="M191.05,290.61a10.81,10.81,0,0,1-.7,4.13,4.75,4.75,0,0,1-1.92,2.4c-.81.47-1.45.4-1.92-.19a5.6,5.6,0,0,1-.71-3.32v-3a11,11,0,0,1,.7-4.13,4.69,4.69,0,0,1,1.92-2.41c.81-.47,1.45-.41,1.92.19a5.62,5.62,0,0,1,.71,3.32Zm-1.11-2.73a4.54,4.54,0,0,0-.39-2.26c-.26-.4-.64-.47-1.13-.18a2.66,2.66,0,0,0-1.12,1.48,7.89,7.89,0,0,0-.38,2.7v3.72a4.57,4.57,0,0,0,.39,2.26c.26.41.63.48,1.12.2a2.68,2.68,0,0,0,1.12-1.49,7.93,7.93,0,0,0,.39-2.71Z" style="fill:#fff;opacity:0.30000000000000004"></path><path d="M186.72,314.7l1.27-1v-9.51l-1.29.78v-1.07l2.41-2.19v11.35l1.27-.49v1.1l-3.66,2.11Z" style="fill:#fff"></path><path d="M191.05,326.31a10.74,10.74,0,0,1-.7,4.13,4.73,4.73,0,0,1-1.92,2.41c-.81.46-1.45.4-1.92-.19a5.62,5.62,0,0,1-.71-3.32v-3a11.06,11.06,0,0,1,.7-4.14,4.66,4.66,0,0,1,1.92-2.4c.81-.47,1.45-.41,1.92.19a5.6,5.6,0,0,1,.71,3.32Zm-1.11-2.73a4.5,4.5,0,0,0-.39-2.25c-.26-.41-.64-.47-1.13-.18a2.67,2.67,0,0,0-1.12,1.47,8,8,0,0,0-.38,2.7v3.73a4.57,4.57,0,0,0,.39,2.26c.26.41.63.48,1.12.2a2.71,2.71,0,0,0,1.12-1.49,8,8,0,0,0,.39-2.71Z" style="fill:#fff;opacity:0.30000000000000004"></path><path d="M191.05,344.17a10.77,10.77,0,0,1-.7,4.13,4.75,4.75,0,0,1-1.92,2.4c-.81.47-1.45.4-1.92-.19a5.58,5.58,0,0,1-.71-3.31v-3a11,11,0,0,1,.7-4.13,4.73,4.73,0,0,1,1.92-2.41c.81-.47,1.45-.41,1.92.19a5.62,5.62,0,0,1,.71,3.32Zm-1.11-2.73a4.57,4.57,0,0,0-.39-2.26c-.26-.41-.64-.47-1.13-.18a2.66,2.66,0,0,0-1.12,1.48,7.89,7.89,0,0,0-.38,2.7v3.72a4.64,4.64,0,0,0,.39,2.27c.26.4.63.47,1.12.19a2.68,2.68,0,0,0,1.12-1.49,7.93,7.93,0,0,0,.39-2.71Z" style="fill:#fff;opacity:0.15"></path><path d="M191.05,362a10.77,10.77,0,0,1-.7,4.13,4.78,4.78,0,0,1-1.92,2.41c-.81.46-1.45.4-1.92-.2a5.58,5.58,0,0,1-.71-3.31v-3a11,11,0,0,1,.7-4.13,4.73,4.73,0,0,1,1.92-2.41c.81-.47,1.45-.4,1.92.19a5.64,5.64,0,0,1,.71,3.32Zm-1.11-2.73a4.57,4.57,0,0,0-.39-2.26c-.26-.4-.64-.46-1.13-.18a2.69,2.69,0,0,0-1.12,1.48,7.89,7.89,0,0,0-.38,2.7v3.72a4.61,4.61,0,0,0,.39,2.27c.26.41.63.47,1.12.19a2.65,2.65,0,0,0,1.12-1.48,8,8,0,0,0,.39-2.72Z" style="fill:#fff;opacity:0.30000000000000004"></path><path d="M170.47,145.54l1.27-1v-9.51l-1.29.79v-1.08l2.41-2.19v11.35l1.27-.49v1.1l-3.66,2.11Z" style="fill:#fff"></path><path d="M170.47,163.4l1.27-1v-9.51l-1.29.78v-1.07l2.41-2.2v11.35l1.27-.48v1.09l-3.66,2.12Z" style="fill:#fff;opacity:0.30000000000000004"></path><path d="M174.8,175a10.77,10.77,0,0,1-.7,4.13,4.71,4.71,0,0,1-1.92,2.4c-.81.47-1.45.41-1.92-.19a5.58,5.58,0,0,1-.71-3.31v-3a11,11,0,0,1,.7-4.13,4.73,4.73,0,0,1,1.92-2.41c.81-.47,1.45-.4,1.92.19a5.57,5.57,0,0,1,.71,3.32Zm-1.11-2.73a4.57,4.57,0,0,0-.39-2.26c-.26-.4-.64-.46-1.13-.18a2.69,2.69,0,0,0-1.12,1.48,8.15,8.15,0,0,0-.38,2.7v3.72a4.61,4.61,0,0,0,.39,2.27c.26.41.63.47,1.12.19a2.61,2.61,0,0,0,1.12-1.48,8,8,0,0,0,.39-2.72Z" style="fill:#fff"></path><path d="M170.47,199.11l1.27-1v-9.51l-1.29.78v-1.07l2.41-2.2v11.35l1.27-.49v1.1l-3.66,2.11Z" style="fill:#fff;opacity:0.30000000000000004"></path><path d="M174.8,210.72a10.77,10.77,0,0,1-.7,4.13,4.75,4.75,0,0,1-1.92,2.4c-.81.47-1.45.4-1.92-.19a5.58,5.58,0,0,1-.71-3.31v-3a11,11,0,0,1,.7-4.13,4.73,4.73,0,0,1,1.92-2.41c.81-.47,1.45-.4,1.92.19a5.55,5.55,0,0,1,.71,3.32ZM173.69,208a4.57,4.57,0,0,0-.39-2.26c-.26-.4-.64-.46-1.13-.18a2.69,2.69,0,0,0-1.12,1.48,8.15,8.15,0,0,0-.38,2.7v3.72a4.61,4.61,0,0,0,.39,2.27c.26.41.63.47,1.12.19a2.63,2.63,0,0,0,1.12-1.49,7.93,7.93,0,0,0,.39-2.71Z" style="fill:#fff;opacity:0.15"></path><path d="M170.47,306.23l1.27-1v-9.51l-1.29.78v-1.07l2.41-2.19v11.35l1.27-.49v1.1l-3.66,2.11Z" style="fill:#fff;opacity:0.30000000000000004"></path><path d="M170.47,324.08l1.27-1v-9.51l-1.29.79V313.3l2.41-2.19v11.35l1.27-.49v1.1l-3.66,2.11Z" style="fill:#fff;opacity:0.15"></path><path d="M174.8,335.69a10.83,10.83,0,0,1-.7,4.14,4.75,4.75,0,0,1-1.92,2.4c-.81.47-1.45.4-1.92-.19a5.6,5.6,0,0,1-.71-3.32v-3a11,11,0,0,1,.7-4.13,4.69,4.69,0,0,1,1.92-2.41c.81-.47,1.45-.41,1.92.19a5.55,5.55,0,0,1,.71,3.32ZM173.69,333a4.52,4.52,0,0,0-.39-2.25c-.26-.41-.64-.47-1.13-.18a2.67,2.67,0,0,0-1.12,1.47,8.25,8.25,0,0,0-.38,2.71v3.72a4.57,4.57,0,0,0,.39,2.26c.26.41.63.48,1.12.2a2.63,2.63,0,0,0,1.12-1.49,7.93,7.93,0,0,0,.39-2.71Z" style="fill:#fff;opacity:0.30000000000000004"></path><path d="M170.47,359.79l1.27-1V349.3l-1.29.78V349l2.41-2.19v11.35l1.27-.49v1.1l-3.66,2.11Z" style="fill:#fff"></path><path d="M174.8,371.4a10.86,10.86,0,0,1-.7,4.14,4.75,4.75,0,0,1-1.92,2.4c-.81.47-1.45.4-1.92-.19a5.62,5.62,0,0,1-.71-3.32v-3a11.06,11.06,0,0,1,.7-4.14,4.66,4.66,0,0,1,1.92-2.4c.81-.47,1.45-.41,1.92.19a5.52,5.52,0,0,1,.71,3.32Zm-1.11-2.73a4.52,4.52,0,0,0-.39-2.25c-.26-.41-.64-.47-1.13-.18a2.67,2.67,0,0,0-1.12,1.47,8.25,8.25,0,0,0-.38,2.71v3.72a4.57,4.57,0,0,0,.39,2.26c.26.41.63.48,1.12.2a2.67,2.67,0,0,0,1.12-1.49,8,8,0,0,0,.39-2.71Z" style="fill:#fff;opacity:0.30000000000000004"></path><path d="M251,99.06l1.27-1V88.57l-1.29.79V88.28l2.41-2.19V97.44l1.27-.49v1.1L251,100.16Z" style="fill:#fff"></path><path d="M255.31,110.67a10.83,10.83,0,0,1-.7,4.14,4.75,4.75,0,0,1-1.92,2.4c-.81.47-1.45.4-1.92-.19a5.62,5.62,0,0,1-.71-3.32v-3a11.06,11.06,0,0,1,.7-4.14,4.71,4.71,0,0,1,1.92-2.4c.81-.47,1.45-.41,1.92.19a5.52,5.52,0,0,1,.71,3.32Zm-1.11-2.73a4.52,4.52,0,0,0-.39-2.25c-.26-.41-.64-.47-1.13-.18a2.67,2.67,0,0,0-1.12,1.47,8.25,8.25,0,0,0-.38,2.71v3.72a4.57,4.57,0,0,0,.39,2.26c.26.41.63.48,1.12.2a2.68,2.68,0,0,0,1.12-1.49,7.93,7.93,0,0,0,.39-2.71Z" style="fill:#fff;opacity:0.15"></path><path d="M251,134.77l1.27-1v-9.51l-1.29.78V124l2.41-2.19v11.35l1.27-.49v1.1L251,135.87Z" style="fill:#fff"></path><path d="M255.31,146.38a10.77,10.77,0,0,1-.7,4.13,4.73,4.73,0,0,1-1.92,2.41c-.81.46-1.45.4-1.92-.19a5.62,5.62,0,0,1-.71-3.32v-3a11.06,11.06,0,0,1,.7-4.14,4.66,4.66,0,0,1,1.92-2.4c.81-.47,1.45-.41,1.92.19a5.52,5.52,0,0,1,.71,3.32Zm-1.11-2.73a4.5,4.5,0,0,0-.39-2.25c-.26-.41-.64-.47-1.13-.18a2.67,2.67,0,0,0-1.12,1.47,8.23,8.23,0,0,0-.38,2.7v3.73a4.57,4.57,0,0,0,.39,2.26c.26.41.63.48,1.12.2a2.71,2.71,0,0,0,1.12-1.49,8,8,0,0,0,.39-2.71Z" style="fill:#fff;opacity:0.30000000000000004"></path><path d="M251,170.48l1.27-1V160l-1.29.78V159.7l2.41-2.2v11.36l1.27-.49v1.1L251,171.58Z" style="fill:#fff;opacity:0.30000000000000004"></path><path d="M251,188.33l1.27-1v-9.51l-1.29.79v-1.08l2.41-2.19v11.35l1.27-.49v1.1L251,189.43Z" style="fill:#fff"></path><path d="M251,206.18l1.27-1V195.7l-1.29.78v-1.07l2.41-2.2v11.35l1.27-.49v1.1L251,207.28Z" style="fill:#fff;opacity:0.15"></path><path d="M255.31,217.8a10.77,10.77,0,0,1-.7,4.13,4.75,4.75,0,0,1-1.92,2.4c-.81.47-1.45.4-1.92-.19a5.58,5.58,0,0,1-.71-3.31v-3a11,11,0,0,1,.7-4.13,4.73,4.73,0,0,1,1.92-2.41c.81-.47,1.45-.41,1.92.19a5.55,5.55,0,0,1,.71,3.32Zm-1.11-2.73a4.57,4.57,0,0,0-.39-2.26c-.26-.4-.64-.47-1.13-.18a2.66,2.66,0,0,0-1.12,1.48,8.15,8.15,0,0,0-.38,2.7v3.72a4.61,4.61,0,0,0,.39,2.27c.26.41.63.47,1.12.19a2.68,2.68,0,0,0,1.12-1.49,7.93,7.93,0,0,0,.39-2.71Z" style="fill:#fff;opacity:0.30000000000000004"></path><path d="M251,241.89l1.27-1V231.4l-1.29.79v-1.08l2.41-2.19v11.35l1.27-.49v1.1L251,243Z" style="fill:#fff"></path><path d="M255.31,253.51a10.81,10.81,0,0,1-.7,4.13,4.75,4.75,0,0,1-1.92,2.4c-.81.47-1.45.4-1.92-.19a5.6,5.6,0,0,1-.71-3.32v-3a11,11,0,0,1,.7-4.13,4.69,4.69,0,0,1,1.92-2.41c.81-.47,1.45-.41,1.92.19a5.55,5.55,0,0,1,.71,3.32Zm-1.11-2.73a4.57,4.57,0,0,0-.39-2.26c-.26-.41-.64-.47-1.13-.18a2.66,2.66,0,0,0-1.12,1.48,8.15,8.15,0,0,0-.38,2.7v3.72a4.57,4.57,0,0,0,.39,2.26c.26.41.63.48,1.12.2a2.68,2.68,0,0,0,1.12-1.49,7.93,7.93,0,0,0,.39-2.71Z" style="fill:#fff;opacity:0.15"></path><path d="M251,277.6l1.27-1v-9.51l-1.29.78v-1.07l2.41-2.19V276l1.27-.49v1.1L251,278.7Z" style="fill:#fff;opacity:0.30000000000000004"></path><path d="M255.31,289.21a10.74,10.74,0,0,1-.7,4.13,4.73,4.73,0,0,1-1.92,2.41c-.81.46-1.45.4-1.92-.19a5.62,5.62,0,0,1-.71-3.32v-3a11.06,11.06,0,0,1,.7-4.14,4.66,4.66,0,0,1,1.92-2.4c.81-.47,1.45-.41,1.92.19a5.52,5.52,0,0,1,.71,3.32Zm-1.11-2.73a4.5,4.5,0,0,0-.39-2.25c-.26-.41-.64-.47-1.13-.18a2.67,2.67,0,0,0-1.12,1.47,8.23,8.23,0,0,0-.38,2.7V292a4.57,4.57,0,0,0,.39,2.26c.26.41.63.48,1.12.2a2.71,2.71,0,0,0,1.12-1.49,8,8,0,0,0,.39-2.71Z" style="fill:#fff"></path><path d="M251,313.31l1.27-1v-9.51l-1.29.78v-1.07l2.41-2.2v11.36l1.27-.49v1.09L251,314.41Z" style="fill:#fff;opacity:0.30000000000000004"></path><path d="M255.31,324.92a10.77,10.77,0,0,1-.7,4.13,4.73,4.73,0,0,1-1.92,2.41c-.81.46-1.45.4-1.92-.2a5.56,5.56,0,0,1-.71-3.31v-3a11,11,0,0,1,.7-4.13,4.73,4.73,0,0,1,1.92-2.41c.81-.47,1.45-.4,1.92.19a5.57,5.57,0,0,1,.71,3.32Zm-1.11-2.73a4.57,4.57,0,0,0-.39-2.26c-.26-.4-.64-.46-1.13-.18a2.69,2.69,0,0,0-1.12,1.48,8.15,8.15,0,0,0-.38,2.7v3.72a4.61,4.61,0,0,0,.39,2.27c.26.41.63.47,1.12.19a2.65,2.65,0,0,0,1.12-1.48,8,8,0,0,0,.39-2.72Z" style="fill:#fff;opacity:0.30000000000000004"></path><path d="M239.06,102.2a10.77,10.77,0,0,1-.7,4.13,4.73,4.73,0,0,1-1.92,2.41c-.81.46-1.45.4-1.92-.19a5.63,5.63,0,0,1-.7-3.32v-3a10.84,10.84,0,0,1,.7-4.13,4.67,4.67,0,0,1,1.91-2.41c.81-.46,1.45-.4,1.93.2a5.6,5.6,0,0,1,.7,3.31ZM238,99.47a4.5,4.5,0,0,0-.39-2.25c-.26-.41-.64-.47-1.13-.18a2.61,2.61,0,0,0-1.11,1.47,8,8,0,0,0-.39,2.7v3.73a4.57,4.57,0,0,0,.39,2.26c.26.41.63.48,1.12.2a2.72,2.72,0,0,0,1.13-1.49,8.28,8.28,0,0,0,.38-2.72Z" style="fill:#fff;opacity:0.15"></path><path d="M234.73,126.3l1.28-1v-9.51l-1.3.78v-1.07l2.41-2.2v11.35l1.27-.48v1.09l-3.66,2.12Z" style="fill:#fff"></path><path d="M234.73,144.15l1.28-1v-9.51l-1.3.78v-1.07l2.41-2.19v11.35l1.27-.49v1.1l-3.66,2.11Z" style="fill:#fff;opacity:0.15"></path><path d="M234.73,162l1.28-1v-9.51l-1.3.78v-1.07l2.41-2.2v11.35l1.27-.49V161l-3.66,2.11Z" style="fill:#fff;opacity:0.30000000000000004"></path><path d="M239.06,173.62a10.77,10.77,0,0,1-.7,4.13,4.75,4.75,0,0,1-1.92,2.4c-.81.47-1.45.41-1.92-.19a5.6,5.6,0,0,1-.7-3.31v-3a10.81,10.81,0,0,1,.7-4.13,4.67,4.67,0,0,1,1.91-2.41c.81-.47,1.45-.41,1.93.19a5.63,5.63,0,0,1,.7,3.32ZM238,170.89a4.57,4.57,0,0,0-.39-2.26c-.26-.4-.64-.46-1.13-.18a2.64,2.64,0,0,0-1.11,1.48,7.87,7.87,0,0,0-.39,2.7v3.72a4.61,4.61,0,0,0,.39,2.27c.26.41.63.47,1.12.19a2.69,2.69,0,0,0,1.13-1.49,8.21,8.21,0,0,0,.38-2.71Z" style="fill:#fff"></path><path d="M239.06,191.47a10.77,10.77,0,0,1-.7,4.13,4.73,4.73,0,0,1-1.92,2.41c-.81.46-1.45.4-1.92-.19a5.63,5.63,0,0,1-.7-3.32v-3a10.84,10.84,0,0,1,.7-4.13,4.67,4.67,0,0,1,1.91-2.41c.81-.46,1.45-.4,1.93.19a5.65,5.65,0,0,1,.7,3.32ZM238,188.74a4.5,4.5,0,0,0-.39-2.25c-.26-.41-.64-.47-1.13-.19a2.67,2.67,0,0,0-1.11,1.48,7.91,7.91,0,0,0-.39,2.7v3.73a4.59,4.59,0,0,0,.39,2.26c.26.41.63.47,1.12.19a2.66,2.66,0,0,0,1.13-1.48,8.28,8.28,0,0,0,.38-2.72Z" style="fill:#fff;opacity:0.30000000000000004"></path><path d="M234.73,215.57l1.28-1v-9.51l-1.3.78v-1.07l2.41-2.2v11.35l1.27-.49v1.1l-3.66,2.12Z" style="fill:#fff"></path><path d="M239.06,227.18a10.77,10.77,0,0,1-.7,4.13,4.71,4.71,0,0,1-1.92,2.4c-.81.47-1.45.41-1.92-.19a5.6,5.6,0,0,1-.7-3.31v-3a10.84,10.84,0,0,1,.7-4.13,4.67,4.67,0,0,1,1.91-2.41,1.35,1.35,0,0,1,1.93.19,5.65,5.65,0,0,1,.7,3.32ZM238,224.45a4.57,4.57,0,0,0-.39-2.26c-.26-.4-.64-.46-1.13-.18a2.64,2.64,0,0,0-1.11,1.48,7.87,7.87,0,0,0-.39,2.7v3.72a4.61,4.61,0,0,0,.39,2.27c.26.41.63.47,1.12.19a2.66,2.66,0,0,0,1.13-1.48,8.28,8.28,0,0,0,.38-2.72Z" style="fill:#fff"></path><path d="M234.73,251.27l1.28-1v-9.51l-1.3.78V240.5l2.41-2.2v11.35l1.27-.49v1.1l-3.66,2.11Z" style="fill:#fff;opacity:0.30000000000000004"></path><path d="M239.06,262.89a10.77,10.77,0,0,1-.7,4.13,4.75,4.75,0,0,1-1.92,2.4c-.81.47-1.45.4-1.92-.19a5.6,5.6,0,0,1-.7-3.31v-3a10.81,10.81,0,0,1,.7-4.13,4.67,4.67,0,0,1,1.91-2.41c.81-.47,1.45-.41,1.93.19a5.63,5.63,0,0,1,.7,3.32ZM238,260.16a4.57,4.57,0,0,0-.39-2.26c-.26-.4-.64-.47-1.13-.18a2.6,2.6,0,0,0-1.11,1.48,7.87,7.87,0,0,0-.39,2.7v3.72a4.61,4.61,0,0,0,.39,2.27c.26.41.63.47,1.12.19a2.69,2.69,0,0,0,1.13-1.49,8.21,8.21,0,0,0,.38-2.71Z" style="fill:#fff;opacity:0.30000000000000004"></path><path d="M234.73,287l1.28-1v-9.51l-1.3.79V276.2l2.41-2.19v11.35l1.27-.49V286l-3.66,2.11Z" style="fill:#fff"></path><path d="M239.06,298.59a10.74,10.74,0,0,1-.7,4.13,4.73,4.73,0,0,1-1.92,2.41c-.81.47-1.45.4-1.92-.19a5.63,5.63,0,0,1-.7-3.32v-3a10.86,10.86,0,0,1,.7-4.14,4.6,4.6,0,0,1,1.91-2.4c.81-.47,1.45-.41,1.93.19a5.61,5.61,0,0,1,.7,3.32ZM238,295.86a4.52,4.52,0,0,0-.39-2.25c-.26-.41-.64-.47-1.13-.18a2.61,2.61,0,0,0-1.11,1.47,8,8,0,0,0-.39,2.71v3.72a4.57,4.57,0,0,0,.39,2.26c.26.41.63.48,1.12.2a2.69,2.69,0,0,0,1.13-1.49,8.25,8.25,0,0,0,.38-2.71Z" style="fill:#fff;opacity:0.30000000000000004"></path><path d="M239.06,316.45a10.77,10.77,0,0,1-.7,4.13,4.75,4.75,0,0,1-1.92,2.4c-.81.47-1.45.4-1.92-.19a5.6,5.6,0,0,1-.7-3.31v-3a10.81,10.81,0,0,1,.7-4.13,4.67,4.67,0,0,1,1.91-2.41c.81-.47,1.45-.41,1.93.19a5.63,5.63,0,0,1,.7,3.32ZM238,313.72a4.57,4.57,0,0,0-.39-2.26c-.26-.4-.64-.46-1.13-.18a2.64,2.64,0,0,0-1.11,1.48,7.87,7.87,0,0,0-.39,2.7v3.72a4.64,4.64,0,0,0,.39,2.27c.26.41.63.47,1.12.19a2.65,2.65,0,0,0,1.13-1.49,8.21,8.21,0,0,0,.38-2.71Z" style="fill:#fff;opacity:0.15"></path><path d="M239.06,334.3a10.77,10.77,0,0,1-.7,4.13,4.73,4.73,0,0,1-1.92,2.41c-.81.46-1.45.4-1.92-.2a5.58,5.58,0,0,1-.7-3.31v-3a10.84,10.84,0,0,1,.7-4.13,4.67,4.67,0,0,1,1.91-2.41,1.35,1.35,0,0,1,1.93.19,5.65,5.65,0,0,1,.7,3.32ZM238,331.57a4.57,4.57,0,0,0-.39-2.26c-.26-.4-.64-.46-1.13-.18a2.64,2.64,0,0,0-1.11,1.48,7.87,7.87,0,0,0-.39,2.7V337a4.61,4.61,0,0,0,.39,2.27c.26.41.63.47,1.12.19a2.66,2.66,0,0,0,1.13-1.48,8.28,8.28,0,0,0,.38-2.72Z" style="fill:#fff"></path><path d="M218.48,117.82l1.28-1v-9.52l-1.3.79v-1.07l2.41-2.2V116.2l1.27-.49v1.1l-3.66,2.11Z" style="fill:#fff"></path><path d="M218.48,135.68l1.28-1v-9.51l-1.3.78V124.9l2.41-2.2v11.35l1.27-.48v1.09l-3.66,2.12Z" style="fill:#fff;opacity:0.30000000000000004"></path><path d="M222.81,147.29a10.77,10.77,0,0,1-.7,4.13,4.73,4.73,0,0,1-1.92,2.41,1.34,1.34,0,0,1-1.92-.2,5.58,5.58,0,0,1-.7-3.31v-3a10.84,10.84,0,0,1,.7-4.13,4.72,4.72,0,0,1,1.91-2.41,1.35,1.35,0,0,1,1.93.19,5.65,5.65,0,0,1,.7,3.32Zm-1.11-2.73a4.57,4.57,0,0,0-.39-2.26c-.26-.4-.63-.46-1.13-.18a2.68,2.68,0,0,0-1.11,1.48,7.87,7.87,0,0,0-.39,2.7V150a4.61,4.61,0,0,0,.39,2.27c.26.41.64.47,1.12.19a2.66,2.66,0,0,0,1.13-1.48,8.28,8.28,0,0,0,.38-2.72Z" style="fill:#fff"></path><path d="M218.48,171.39l1.28-1V160.9l-1.3.78v-1.07l2.41-2.2v11.35l1.27-.49v1.1l-3.66,2.11Z" style="fill:#fff;opacity:0.30000000000000004"></path><path d="M222.81,183a10.77,10.77,0,0,1-.7,4.13,4.71,4.71,0,0,1-1.92,2.4,1.33,1.33,0,0,1-1.92-.19,5.6,5.6,0,0,1-.7-3.31v-3a10.84,10.84,0,0,1,.7-4.13,4.72,4.72,0,0,1,1.91-2.41,1.35,1.35,0,0,1,1.93.19,5.65,5.65,0,0,1,.7,3.32Zm-1.11-2.73a4.57,4.57,0,0,0-.39-2.26c-.26-.4-.63-.46-1.13-.18a2.68,2.68,0,0,0-1.11,1.48,7.87,7.87,0,0,0-.39,2.7v3.72a4.61,4.61,0,0,0,.39,2.27c.26.41.64.47,1.12.19a2.65,2.65,0,0,0,1.13-1.49,8.21,8.21,0,0,0,.38-2.71Z" style="fill:#fff;opacity:0.15"></path><path d="M222.81,200.85a10.77,10.77,0,0,1-.7,4.13,4.73,4.73,0,0,1-1.92,2.41,1.35,1.35,0,0,1-1.92-.19,5.63,5.63,0,0,1-.7-3.32v-3a10.84,10.84,0,0,1,.7-4.13,4.72,4.72,0,0,1,1.91-2.41c.81-.46,1.46-.4,1.93.19a5.65,5.65,0,0,1,.7,3.32Zm-1.11-2.73a4.5,4.5,0,0,0-.39-2.25c-.26-.41-.63-.47-1.13-.18a2.66,2.66,0,0,0-1.11,1.47,8,8,0,0,0-.39,2.7v3.73a4.57,4.57,0,0,0,.39,2.26.73.73,0,0,0,1.12.2,2.72,2.72,0,0,0,1.13-1.49,8.28,8.28,0,0,0,.38-2.72Z" style="fill:#fff"></path><path d="M218.48,225l1.28-1v-9.51l-1.3.78v-1.07l2.41-2.2v11.35l1.27-.48v1.09l-3.66,2.12Z" style="fill:#fff;opacity:0.30000000000000004"></path><path d="M222.81,236.56a10.77,10.77,0,0,1-.7,4.13,4.78,4.78,0,0,1-1.92,2.41,1.34,1.34,0,0,1-1.92-.2,5.6,5.6,0,0,1-.7-3.31v-3a10.84,10.84,0,0,1,.7-4.13,4.72,4.72,0,0,1,1.91-2.41,1.35,1.35,0,0,1,1.93.19,5.65,5.65,0,0,1,.7,3.32Zm-1.11-2.73a4.57,4.57,0,0,0-.39-2.26c-.26-.4-.63-.46-1.13-.18a2.68,2.68,0,0,0-1.11,1.48,7.87,7.87,0,0,0-.39,2.7v3.72a4.61,4.61,0,0,0,.39,2.27c.26.41.64.47,1.12.19a2.66,2.66,0,0,0,1.13-1.48,8.28,8.28,0,0,0,.38-2.72Z" style="fill:#fff;opacity:0.30000000000000004"></path><path d="M222.81,254.41a10.83,10.83,0,0,1-.7,4.14,4.75,4.75,0,0,1-1.92,2.4,1.34,1.34,0,0,1-1.92-.19,5.61,5.61,0,0,1-.7-3.32v-3a10.86,10.86,0,0,1,.7-4.14,4.69,4.69,0,0,1,1.91-2.4c.81-.47,1.46-.41,1.93.19a5.63,5.63,0,0,1,.7,3.32Zm-1.11-2.73a4.52,4.52,0,0,0-.39-2.25c-.26-.41-.63-.47-1.13-.18a2.66,2.66,0,0,0-1.11,1.47,8,8,0,0,0-.39,2.71v3.72a4.57,4.57,0,0,0,.39,2.26.73.73,0,0,0,1.12.2,2.69,2.69,0,0,0,1.13-1.49,8.25,8.25,0,0,0,.38-2.71Z" style="fill:#fff"></path><path d="M218.48,278.51l1.28-1V268l-1.3.78v-1.07l2.41-2.19v11.35l1.27-.49v1.1l-3.66,2.11Z" style="fill:#fff;opacity:0.30000000000000004"></path><path d="M218.48,296.36l1.28-1v-9.51l-1.3.79v-1.08l2.41-2.19v11.35l1.27-.49v1.1l-3.66,2.11Z" style="fill:#fff;opacity:0.15"></path><path d="M222.81,308a10.81,10.81,0,0,1-.7,4.13,4.75,4.75,0,0,1-1.92,2.4,1.34,1.34,0,0,1-1.92-.19,5.61,5.61,0,0,1-.7-3.32v-3a10.81,10.81,0,0,1,.7-4.13,4.68,4.68,0,0,1,1.91-2.41c.81-.47,1.46-.41,1.93.19a5.63,5.63,0,0,1,.7,3.32Zm-1.11-2.73a4.54,4.54,0,0,0-.39-2.26c-.26-.41-.63-.47-1.13-.18a2.65,2.65,0,0,0-1.11,1.48,7.87,7.87,0,0,0-.39,2.7v3.72a4.57,4.57,0,0,0,.39,2.26.73.73,0,0,0,1.12.2,2.69,2.69,0,0,0,1.13-1.49,8.21,8.21,0,0,0,.38-2.71Z" style="fill:#fff;opacity:0.30000000000000004"></path><path d="M218.48,332.07l1.28-1v-9.51l-1.3.78v-1.07l2.41-2.19v11.35l1.27-.49v1.1l-3.66,2.11Z" style="fill:#fff"></path><path d="M222.81,343.68a10.83,10.83,0,0,1-.7,4.14,4.75,4.75,0,0,1-1.92,2.4,1.34,1.34,0,0,1-1.92-.19,5.63,5.63,0,0,1-.7-3.32v-3a10.86,10.86,0,0,1,.7-4.14,4.69,4.69,0,0,1,1.91-2.4c.81-.47,1.46-.41,1.93.19a5.61,5.61,0,0,1,.7,3.32ZM221.7,341a4.52,4.52,0,0,0-.39-2.25c-.26-.41-.63-.47-1.13-.18a2.65,2.65,0,0,0-1.11,1.48,7.87,7.87,0,0,0-.39,2.7v3.72a4.57,4.57,0,0,0,.39,2.26.73.73,0,0,0,1.12.2,2.72,2.72,0,0,0,1.13-1.49,8.21,8.21,0,0,0,.38-2.71Z" style="fill:#fff;opacity:0.30000000000000004"></path><path d="M267.23,89.68l1.27-1V79.19l-1.3.78V78.9l2.42-2.19V88.06l1.26-.49v1.1l-3.65,2.11Z" style="fill:#fff;opacity:0.30000000000000004"></path><path d="M271.56,101.29a10.77,10.77,0,0,1-.7,4.13,4.73,4.73,0,0,1-1.92,2.41c-.81.46-1.45.4-1.92-.2a5.56,5.56,0,0,1-.71-3.31v-3a10.84,10.84,0,0,1,.7-4.13,4.73,4.73,0,0,1,1.92-2.41c.81-.47,1.45-.4,1.92.19a5.64,5.64,0,0,1,.71,3.32Zm-1.12-2.73a4.71,4.71,0,0,0-.38-2.26c-.26-.4-.64-.46-1.13-.18a2.69,2.69,0,0,0-1.12,1.48,7.89,7.89,0,0,0-.38,2.7V104a4.59,4.59,0,0,0,.39,2.26c.26.41.63.47,1.12.19a2.65,2.65,0,0,0,1.12-1.48,8,8,0,0,0,.38-2.72Z" style="fill:#fff"></path><path d="M267.23,125.39l1.27-1V114.9l-1.3.78v-1.07l2.42-2.2v11.35l1.26-.49v1.1l-3.65,2.11Z" style="fill:#fff;opacity:0.30000000000000004"></path><path d="M271.56,137a10.77,10.77,0,0,1-.7,4.13,4.71,4.71,0,0,1-1.92,2.4c-.81.47-1.45.41-1.92-.19a5.58,5.58,0,0,1-.71-3.31v-3a10.84,10.84,0,0,1,.7-4.13,4.73,4.73,0,0,1,1.92-2.41c.81-.47,1.45-.4,1.92.19a5.64,5.64,0,0,1,.71,3.32Zm-1.12-2.73a4.71,4.71,0,0,0-.38-2.26c-.26-.4-.64-.46-1.13-.18a2.69,2.69,0,0,0-1.12,1.48,7.89,7.89,0,0,0-.38,2.7v3.72a4.61,4.61,0,0,0,.39,2.27c.26.41.63.47,1.12.19a2.65,2.65,0,0,0,1.12-1.48,8,8,0,0,0,.38-2.72Z" style="fill:#fff;opacity:0.30000000000000004"></path><path d="M267.23,161.09l1.27-1V150.6l-1.3.79v-1.07l2.42-2.2v11.35l1.26-.49v1.1l-3.65,2.11Z" style="fill:#fff"></path><path d="M267.23,179l1.27-1v-9.51l-1.3.78v-1.07l2.42-2.2v11.36l1.26-.49v1.1l-3.65,2.11Z" style="fill:#fff;opacity:0.30000000000000004"></path><path d="M267.23,196.8l1.27-1v-9.51l-1.3.79V186l2.42-2.19v11.35l1.26-.49v1.1l-3.65,2.11Z" style="fill:#fff;opacity:0.15"></path><path d="M271.56,208.41a10.74,10.74,0,0,1-.7,4.13,4.73,4.73,0,0,1-1.92,2.41c-.81.47-1.45.4-1.92-.19a5.62,5.62,0,0,1-.71-3.32v-3a10.86,10.86,0,0,1,.7-4.14,4.66,4.66,0,0,1,1.92-2.4c.81-.47,1.45-.41,1.92.19a5.6,5.6,0,0,1,.71,3.32Zm-1.12-2.73a4.66,4.66,0,0,0-.38-2.25c-.26-.41-.64-.47-1.13-.18a2.67,2.67,0,0,0-1.12,1.47,8,8,0,0,0-.38,2.71v3.72a4.57,4.57,0,0,0,.39,2.26c.26.41.63.48,1.12.2a2.71,2.71,0,0,0,1.12-1.49,8,8,0,0,0,.38-2.71Z" style="fill:#fff"></path><path d="M267.23,232.51l1.27-1V222l-1.3.78v-1.07l2.42-2.19v11.35l1.26-.49v1.1l-3.65,2.11Z" style="fill:#fff;opacity:0.15"></path><path d="M271.56,244.12a10.77,10.77,0,0,1-.7,4.13,4.73,4.73,0,0,1-1.92,2.41c-.81.46-1.45.4-1.92-.19a5.62,5.62,0,0,1-.71-3.32v-3A10.86,10.86,0,0,1,267,240a4.73,4.73,0,0,1,1.92-2.41c.81-.46,1.45-.4,1.92.2a5.58,5.58,0,0,1,.71,3.31Zm-1.12-2.73a4.64,4.64,0,0,0-.38-2.25c-.26-.41-.64-.47-1.13-.18a2.67,2.67,0,0,0-1.12,1.47,8,8,0,0,0-.38,2.7v3.73a4.57,4.57,0,0,0,.39,2.26c.26.41.63.48,1.12.2a2.71,2.71,0,0,0,1.12-1.49,8,8,0,0,0,.38-2.72Z" style="fill:#fff;opacity:0.15"></path><path d="M267.23,268.22l1.27-1v-9.51l-1.3.78v-1.07l2.42-2.2v11.35l1.26-.49v1.1l-3.65,2.12Z" style="fill:#fff;opacity:0.30000000000000004"></path><path d="M271.56,279.83a10.77,10.77,0,0,1-.7,4.13,4.66,4.66,0,0,1-1.92,2.4c-.81.47-1.45.41-1.92-.19a5.56,5.56,0,0,1-.71-3.31v-3a10.84,10.84,0,0,1,.7-4.13,4.73,4.73,0,0,1,1.92-2.41c.81-.47,1.45-.4,1.92.19a5.64,5.64,0,0,1,.71,3.32Zm-1.12-2.73a4.71,4.71,0,0,0-.38-2.26c-.26-.4-.64-.46-1.13-.18a2.69,2.69,0,0,0-1.12,1.48,7.89,7.89,0,0,0-.38,2.7v3.72a4.61,4.61,0,0,0,.39,2.27c.26.41.63.47,1.12.19a2.65,2.65,0,0,0,1.12-1.48,8,8,0,0,0,.38-2.72Z" style="fill:#fff;opacity:0.30000000000000004"></path><path d="M267.23,303.92l1.27-1v-9.52l-1.3.79v-1.07l2.42-2.2V302.3l1.26-.49v1.1L267.23,305Z" style="fill:#fff;opacity:0.30000000000000004"></path><path d="M271.56,315.54a10.77,10.77,0,0,1-.7,4.13,4.75,4.75,0,0,1-1.92,2.4c-.81.47-1.45.4-1.92-.19a5.58,5.58,0,0,1-.71-3.31v-3a10.81,10.81,0,0,1,.7-4.13,4.73,4.73,0,0,1,1.92-2.41c.81-.47,1.45-.41,1.92.19a5.62,5.62,0,0,1,.71,3.32Zm-1.12-2.73a4.71,4.71,0,0,0-.38-2.26c-.26-.4-.64-.47-1.13-.18a2.66,2.66,0,0,0-1.12,1.48,7.89,7.89,0,0,0-.38,2.7v3.72a4.61,4.61,0,0,0,.39,2.27c.26.41.63.47,1.12.19a2.68,2.68,0,0,0,1.12-1.49,8,8,0,0,0,.38-2.71Z" style="fill:#fff"></path><path d="M137.89,253.62l1.27-1v-9.52l-1.29.79v-1.07l2.41-2.2V252l1.27-.49v1.1l-3.66,2.11Z" style="fill:#2C2D32"></path><path d="M142.22,283.09a10.77,10.77,0,0,1-.7,4.13,4.71,4.71,0,0,1-1.92,2.4c-.81.47-1.45.41-1.92-.19a5.58,5.58,0,0,1-.71-3.31v-3a11,11,0,0,1,.7-4.13,4.73,4.73,0,0,1,1.92-2.41c.81-.47,1.45-.4,1.92.19a5.57,5.57,0,0,1,.71,3.32Zm-1.11-2.73a4.57,4.57,0,0,0-.39-2.26c-.26-.4-.64-.46-1.13-.18a2.69,2.69,0,0,0-1.12,1.48,8.15,8.15,0,0,0-.38,2.7v3.72a4.61,4.61,0,0,0,.39,2.27c.26.41.63.47,1.12.19a2.61,2.61,0,0,0,1.12-1.48,8,8,0,0,0,.39-2.72Z" style="fill:#2C2D32;opacity:0.30000000000000004"></path><path d="M137.89,307.19l1.27-1V296.7l-1.29.78v-1.07l2.41-2.2v11.35l1.27-.49v1.1l-3.66,2.11Z" style="fill:#2C2D32"></path><path d="M126,256.76a10.74,10.74,0,0,1-.7,4.13,4.73,4.73,0,0,1-1.92,2.41,1.34,1.34,0,0,1-1.92-.19,5.63,5.63,0,0,1-.7-3.32v-3a10.86,10.86,0,0,1,.7-4.14,4.65,4.65,0,0,1,1.91-2.4c.81-.47,1.45-.41,1.93.19a5.61,5.61,0,0,1,.7,3.32ZM124.86,254a4.52,4.52,0,0,0-.39-2.25c-.26-.41-.63-.47-1.13-.18a2.61,2.61,0,0,0-1.11,1.47,8,8,0,0,0-.39,2.71v3.72a4.57,4.57,0,0,0,.39,2.26.73.73,0,0,0,1.12.2,2.72,2.72,0,0,0,1.13-1.49,8.25,8.25,0,0,0,.38-2.71Z" style="fill:#2C2D32;opacity:0.30000000000000004"></path><path d="M126,292.47a10.77,10.77,0,0,1-.7,4.13,4.73,4.73,0,0,1-1.92,2.41c-.81.46-1.44.4-1.92-.2a5.58,5.58,0,0,1-.7-3.31v-3a10.84,10.84,0,0,1,.7-4.13,4.72,4.72,0,0,1,1.91-2.41,1.35,1.35,0,0,1,1.93.19,5.65,5.65,0,0,1,.7,3.32Zm-1.11-2.73a4.57,4.57,0,0,0-.39-2.26c-.26-.4-.63-.46-1.13-.18a2.64,2.64,0,0,0-1.11,1.48,7.87,7.87,0,0,0-.39,2.7v3.73a4.59,4.59,0,0,0,.39,2.26c.26.41.64.47,1.12.19a2.66,2.66,0,0,0,1.13-1.48,8.28,8.28,0,0,0,.38-2.72Z" style="fill:#2C2D32"></path><path d="M121.64,316.57l1.28-1v-9.51l-1.3.78v-1.07l2.41-2.2v11.35l1.27-.48v1.09l-3.66,2.12Z" style="fill:#2C2D32;opacity:0.30000000000000004"></path><path d="M154.14,244.24l1.27-1v-9.51l-1.29.78v-1.07l2.41-2.19v11.35l1.27-.49v1.1l-3.66,2.11Z" style="fill:#2C2D32;opacity:0.30000000000000004"></path><path d="M154.14,297.8l1.27-1v-9.51l-1.29.79V287l2.41-2.19v11.35l1.27-.49v1.1l-3.66,2.11Z" style="fill:#2C2D32;opacity:0.15"></path><path d="M203,216.05l1.27-1v-9.51l-1.3.79v-1.08l2.42-2.19v11.35l1.26-.49V215L203,217.15Z" style="fill:#2C2D32"></path><path d="M203,269.61l1.27-1v-9.51l-1.3.79v-1.08l2.42-2.19V268l1.26-.49v1.1L203,270.71Z" style="fill:#2C2D32"></path><path d="M191.05,219.19a10.77,10.77,0,0,1-.7,4.13,4.73,4.73,0,0,1-1.92,2.41c-.81.46-1.45.4-1.92-.2a5.56,5.56,0,0,1-.71-3.31v-3a11,11,0,0,1,.7-4.13,4.73,4.73,0,0,1,1.92-2.41c.81-.47,1.45-.4,1.92.19a5.64,5.64,0,0,1,.71,3.32Zm-1.11-2.73a4.57,4.57,0,0,0-.39-2.26c-.26-.4-.64-.46-1.13-.18a2.69,2.69,0,0,0-1.12,1.48,7.89,7.89,0,0,0-.38,2.7v3.73a4.59,4.59,0,0,0,.39,2.26c.26.41.63.47,1.12.19a2.65,2.65,0,0,0,1.12-1.48,8,8,0,0,0,.39-2.72Z" style="fill:#2C2D32;opacity:0.30000000000000004"></path><path d="M186.72,279l1.27-1V268.5l-1.29.79v-1.07l2.41-2.2v11.35l1.27-.49V278l-3.66,2.11Z" style="fill:#2C2D32;opacity:0.30000000000000004"></path><path d="M174.8,228.57a10.77,10.77,0,0,1-.7,4.13,4.73,4.73,0,0,1-1.92,2.41c-.81.46-1.45.4-1.92-.19a5.62,5.62,0,0,1-.71-3.32v-3a11,11,0,0,1,.7-4.13,4.73,4.73,0,0,1,1.92-2.41c.81-.46,1.45-.4,1.92.19a5.57,5.57,0,0,1,.71,3.32Zm-1.11-2.73a4.5,4.5,0,0,0-.39-2.25c-.26-.41-.64-.47-1.13-.19a2.73,2.73,0,0,0-1.12,1.48,8.19,8.19,0,0,0-.38,2.7v3.73a4.59,4.59,0,0,0,.39,2.26c.26.41.63.47,1.12.19a2.61,2.61,0,0,0,1.12-1.48,8,8,0,0,0,.39-2.72Z" style="fill:#2C2D32"></path><path d="M174.8,282.13a10.74,10.74,0,0,1-.7,4.13,4.73,4.73,0,0,1-1.92,2.41c-.81.47-1.45.4-1.92-.19a5.62,5.62,0,0,1-.71-3.32v-3a11.06,11.06,0,0,1,.7-4.14,4.71,4.71,0,0,1,1.92-2.4c.81-.47,1.45-.41,1.92.19a5.52,5.52,0,0,1,.71,3.32Zm-1.11-2.73a4.52,4.52,0,0,0-.39-2.25c-.26-.41-.64-.47-1.13-.18a2.67,2.67,0,0,0-1.12,1.47,8.25,8.25,0,0,0-.38,2.71v3.72a4.57,4.57,0,0,0,.39,2.26c.26.41.63.48,1.12.2a2.67,2.67,0,0,0,1.12-1.49,8,8,0,0,0,.39-2.71Z" style="fill:#2C2D32"></path></g><g id="freepik--Text--inject-59"><path d="M121.64,268.84l1.31-.76c1.16-.67,2.66-1.31,2.66,1.44v.63a4.85,4.85,0,0,1-1.14,3.24v.07c.84-.26,1.28.54,1.28,2.1v.67a5.09,5.09,0,0,1-2.75,4.94l-1.36.79Zm1.52,4.73a2.53,2.53,0,0,0,1.16-2.38v-.54c0-1.22-.31-1.73-1.16-1.24l-.25.15v4.16Zm.12,6.06a2.65,2.65,0,0,0,1.15-2.45v-1c0-1.23-.3-1.74-1.15-1.25l-.37.21v4.72Z" style="fill:#2C2D32"></path><path d="M121.64,268.84l1.31-.76c1.16-.67,2.66-1.31,2.66,1.44v.63a4.85,4.85,0,0,1-1.14,3.24v.07c.84-.26,1.28.54,1.28,2.1v.67a5.09,5.09,0,0,1-2.75,4.94l-1.36.79Zm1.52,4.73a2.53,2.53,0,0,0,1.16-2.38v-.54c0-1.22-.31-1.73-1.16-1.24l-.25.15v4.16Zm.12,6.06a2.65,2.65,0,0,0,1.15-2.45v-1c0-1.23-.3-1.74-1.15-1.25l-.37.21v4.72Z" style="fill:#fff;opacity:0.30000000000000004"></path><path d="M139.06,258.78l1.29-.75v13.12l-1.29.75Z" style="fill:#2C2D32"></path><path d="M139.06,258.78l1.29-.75v13.12l-1.29.75Z" style="fill:#fff;opacity:0.30000000000000004"></path><path d="M153.9,250.21l1-.61,2.07,7.59,0,0c-.05-.79-.14-1.88-.14-3.91v-4.79l1.16-.67v13.12l-1.06.61L155,254.17l0,0c.05.9.14,1.95.14,4.61v3.86l-1.15.66Z" style="fill:#2C2D32"></path><path d="M153.9,250.21l1-.61,2.07,7.59,0,0c-.05-.79-.14-1.88-.14-3.91v-4.79l1.16-.67v13.12l-1.06.61L155,254.17l0,0c.05.9.14,1.95.14,4.61v3.86l-1.15.66Z" style="fill:#fff;opacity:0.30000000000000004"></path><path d="M171.52,240l1.49-.86,1.58,12.21-1.31.76-.24-2.22-1.56.9-.22,2.48-1.32.76Zm1.37,8.48-.6-6.19,0,0-.61,6.89Z" style="fill:#2C2D32"></path><path d="M171.52,240l1.49-.86,1.58,12.21-1.31.76-.24-2.22-1.56.9-.22,2.48-1.32.76Zm1.37,8.48-.6-6.19,0,0-.61,6.89Z" style="fill:#fff;opacity:0.30000000000000004"></path><path d="M186.43,231.43l1.4-.81c1-.56,2.59-1.31,2.59,2.25v.33a7.44,7.44,0,0,1-1.1,4.44l1.37,4.45-1.37.79-1.14-4.25-.48.28v4.91l-1.27.73Zm1.46,5.93c.91-.52,1.23-1.28,1.23-3v-1c0-1.35-.28-1.79-1.23-1.24l-.19.11v5.32Z" style="fill:#2C2D32"></path><path d="M186.43,231.43l1.4-.81c1-.56,2.59-1.31,2.59,2.25v.33a7.44,7.44,0,0,1-1.1,4.44l1.37,4.45-1.37.79-1.14-4.25-.48.28v4.91l-1.27.73Zm1.46,5.93c.91-.52,1.23-1.28,1.23-3v-1c0-1.35-.28-1.79-1.23-1.24l-.19.11v5.32Z" style="fill:#fff;opacity:0.30000000000000004"></path><path d="M204.15,230l-1.72-7.76,1.3-.75,1.05,5.67.06,0,1-6.88,1.3-.75-1.73,9.75v4.38l-1.29.74Z" style="fill:#2C2D32"></path><path d="M204.15,230l-1.72-7.76,1.3-.75,1.05,5.67.06,0,1-6.88,1.3-.75-1.73,9.75v4.38l-1.29.74Z" style="fill:#fff;opacity:0.30000000000000004"></path><path d="M154,277.2v-4.64c0-4,1.29-5.07,2.07-5.52,1.35-.78,1.78.23,1.78,1.75a11.64,11.64,0,0,1-.11,1.63l-1.05.61v-.67c0-1.43-.21-2-.61-1.8s-.72.94-.72,2.62v6c0,1.63.19,2,.71,1.72.34-.2.64-.84.64-1.89v-1.28l1.18-.69v1.22c0,2.1-.64,3.46-1.82,4.14C155.3,280.86,154,281.14,154,277.2Z" style="fill:#2C2D32"></path><path d="M154,277.2v-4.64c0-4,1.29-5.07,2.07-5.52,1.35-.78,1.78.23,1.78,1.75a11.64,11.64,0,0,1-.11,1.63l-1.05.61v-.67c0-1.43-.21-2-.61-1.8s-.72.94-.72,2.62v6c0,1.63.19,2,.71,1.72.34-.2.64-.84.64-1.89v-1.28l1.18-.69v1.22c0,2.1-.64,3.46-1.82,4.14C155.3,280.86,154,281.14,154,277.2Z" style="fill:#fff;opacity:0.30000000000000004"></path><path d="M170.15,267.73v-4.64c0-4,1.33-5.09,2.13-5.55s2.1-.91,2.1,3.1v4.65c0,3.9-1.36,5.17-2.1,5.6S170.15,271.67,170.15,267.73Zm2.88-.88v-6c0-1.69-.24-2.07-.75-1.77s-.77,1-.77,2.65v6c0,1.63.24,2,.77,1.67S173,268.48,173,266.85Z" style="fill:#2C2D32"></path><path d="M170.15,267.73v-4.64c0-4,1.33-5.09,2.13-5.55s2.1-.91,2.1,3.1v4.65c0,3.9-1.36,5.17-2.1,5.6S170.15,271.67,170.15,267.73Zm2.88-.88v-6c0-1.69-.24-2.07-.75-1.77s-.77,1-.77,2.65v6c0,1.63.24,2,.77,1.67S173,268.48,173,266.85Z" style="fill:#fff;opacity:0.30000000000000004"></path><path d="M186.48,249.55l1.35-.77c1.23-.71,2.8-1.52,2.8,3v3.81c0,4.57-1.57,5.57-2.8,6.28l-1.35.78Zm1.63,10.8c.94-.55,1.17-1.32,1.17-3.78V252.5c0-2.47-.23-3-1.17-2.43l-.33.19v10.28Z" style="fill:#2C2D32"></path><path d="M186.48,249.55l1.35-.77c1.23-.71,2.8-1.52,2.8,3v3.81c0,4.57-1.57,5.57-2.8,6.28l-1.35.78Zm1.63,10.8c.94-.55,1.17-1.32,1.17-3.78V252.5c0-2.47-.23-3-1.17-2.43l-.33.19v10.28Z" style="fill:#fff;opacity:0.30000000000000004"></path><path d="M203.25,239.79l3.16-1.83v1.57l-1.87,1.08v3.92l1.45-.83v1.57l-1.45.83v4.5l1.92-1.11v1.56l-3.21,1.86Z" style="fill:#2C2D32"></path><path d="M203.25,239.79l3.16-1.83v1.57l-1.87,1.08v3.92l1.45-.83v1.57l-1.45.83v4.5l1.92-1.11v1.56l-3.21,1.86Z" style="fill:#fff;opacity:0.30000000000000004"></path></g></g></g><g id="freepik--Character--inject-59"><g id="freepik--character--inject-59"><g id="freepik--Bottom--inject-59"><path d="M338.55,425.17l8.52-16.78,17.15,10-21.14,25s-10.48-1-12.16-6.43S335.67,427,338.55,425.17Z" style="fill:#ffa8a7"></path><path d="M326.47,431.77a9,9,0,0,0-2.38,2.59c-.69,1-.47,6-1.13,8.3s-1.17,2.92-2.27,5.81c-1.22,3.21-3.48,6.13-.93,14.37S326.4,475,329.85,477a9,9,0,0,0,4.16,1s4.52-1.71,3.83-4.38S326.47,431.77,326.47,431.77Z" style="fill:#263238"></path><path d="M346.31,440.8c-.13.85-1.31,2.15-1.8,2.85-1.62,2.33-2.36,5.47-2.93,8.23-2.66,13,2.52,19.65-4.49,24.53-2,1.28-6.25.93-12.65-7.28-3.28-4.19-5.14-12.82-3.87-16.73s3-6.44,3.85-9.45.39-8.6,2.05-11.18a12.05,12.05,0,0,1,4.07-3.5c1.24-.76,4-1.75,5.23-2.48s2-1.54,2.78-.62L337.09,427c-2.29,3.17-1.65,3.63-1.59,5.32a26.93,26.93,0,0,1-.85,5.36c1.62-2.05,2.29-3.84,4.06-3.53s2,.23,4.53,2.62S346.42,440.05,346.31,440.8Z" style="fill:#455a64"></path><path d="M324.44,469.13c-3.28-4.19-5.14-12.82-3.87-16.73a37.7,37.7,0,0,1,1.5-3.78c-.05.26-.13.53-.16.76-.08.5-.15,1-.2,1.52a11.64,11.64,0,0,0,.65,5.91c.74,1.63,2.44,5.7,4.63,5.79,1.24,0,2.29-1.16,2.77-2.55.2-.59.53-2.17.53-2.17a19.29,19.29,0,0,1,5.7,2.33c3.18,2.1,3.06,2.57,3.06,2.57a8.58,8.58,0,0,0-.1,2.79,7,7,0,0,0,1.19,2.78,4.39,4.39,0,0,0,.8.65c-.13,3-.91,5.37-3.85,7.41C335.05,477.69,330.84,477.34,324.44,469.13Z" style="fill:#37474f"></path><path d="M341.58,451.88a44.56,44.56,0,0,0-.81,10.41c-1.2,3.34-2.24,3.24-2.39,1.51s2.16-8.9,3.88-14.83C342,450,341.78,450.94,341.58,451.88Z" style="fill:#37474f"></path><path d="M333.66,431a7.2,7.2,0,0,1,1.27-4.77,9.21,9.21,0,0,0,.84-.43c1.37-.78,2-1.54,2.78-.62L337.09,427c-2.29,3.17-1.65,3.63-1.59,5.32a26.93,26.93,0,0,1-.85,5.36c-1.33,5.66-2.54,7.55-3.17,12.89s.44,8.93-.31,9.24-2.28-.31-2.56-4.59,1.62-11.48,2.95-14.89S333.93,433.27,333.66,431Z" style="fill:#37474f"></path><path d="M329.91,458.26a.57.57,0,0,0,.28.14,12.81,12.81,0,0,1,8.54,5,.55.55,0,0,0,.75.06.54.54,0,0,0,.06-.75,13.78,13.78,0,0,0-9.14-5.36.54.54,0,0,0-.49.9Z" style="fill:#ebebeb"></path><path d="M330.59,453.8a.59.59,0,0,0,.27.15,14.31,14.31,0,0,1,9,5.46.53.53,0,0,0,.77.06.55.55,0,0,0,.07-.77,15.42,15.42,0,0,0-9.59-5.82.55.55,0,0,0-.65.41A.53.53,0,0,0,330.59,453.8Z" style="fill:#ebebeb"></path><path d="M330.5,448.89a.56.56,0,0,0,.29.17,16.25,16.25,0,0,1,10,6.13.61.61,0,0,0,.86.07.6.6,0,0,0,.06-.85,17.46,17.46,0,0,0-10.7-6.53.61.61,0,0,0-.72.45A.6.6,0,0,0,330.5,448.89Z" style="fill:#ebebeb"></path><path d="M331.21,444.7a.49.49,0,0,0,.29.16,15.85,15.85,0,0,1,9.83,6,.6.6,0,0,0,.83.06.59.59,0,0,0,.07-.83,17,17,0,0,0-10.47-6.38.59.59,0,0,0-.71.44A.58.58,0,0,0,331.21,444.7Z" style="fill:#ebebeb"></path><path d="M332.74,440.62a.64.64,0,0,0,.29.16,15.83,15.83,0,0,1,9.84,6,.6.6,0,0,0,.83.06.58.58,0,0,0,.06-.83,17,17,0,0,0-10.46-6.38.58.58,0,0,0-.71.44A.61.61,0,0,0,332.74,440.62Z" style="fill:#ebebeb"></path><polygon points="343.18 426.52 354.29 435.6 360.56 439.54 353.4 453.09 333.2 443.42 343.18 426.52" style="fill:#ffa8a7"></polygon><path d="M316.64,366.68s44.33-7.48,61.62-7.37c17.65.11,19.29,13.36,14.87,21.47-8.45,15.54-37.85,48.49-37.85,48.49s-9.88-4.52-12.91-13.06l6.71-15.38L328,407.58l-10.78-7.23-.88-5.5Z" style="fill:#2C2D32"></path><path d="M316.64,366.68s44.33-7.48,61.62-7.37c17.65.11,19.29,13.36,14.87,21.47-8.45,15.54-37.85,48.49-37.85,48.49s-9.88-4.52-12.91-13.06l6.71-15.38L328,407.58l-10.78-7.23-.88-5.5Z" style="opacity:0.4"></path><path d="M316.64,366.68l-66,10.86s-.68,16.75,5.9,31.75a34.21,34.21,0,0,0,26.17,20A193.4,193.4,0,0,0,303.83,431a52.8,52.8,0,0,0,11.05,6.51c5.57,2.21,29.94,12.42,29.94,12.42s6.84-5.79,6.16-17.87l-23-24.47c-5.21-6.34-7-8.39-9.93-9.83C319.52,377.59,318.15,375.19,316.64,366.68Z" style="fill:#2C2D32"></path><path d="M316.64,366.68l-66,10.86s-.68,16.75,5.9,31.75a34.21,34.21,0,0,0,26.17,20A193.4,193.4,0,0,0,303.83,431a52.8,52.8,0,0,0,11.05,6.51c5.57,2.21,29.94,12.42,29.94,12.42s6.84-5.79,6.16-17.87l-23-24.47c-5.21-6.34-7-8.39-9.93-9.83C319.52,377.59,318.15,375.19,316.64,366.68Z" style="opacity:0.30000000000000004"></path><g style="opacity:0.30000000000000004"><path d="M352.59,387.74a154.47,154.47,0,0,0-8.91,14.81l5.4-1.72c6.07-14.47,7.32-18.69,17-25.48C366.11,375.35,359.14,378,352.59,387.74Z"></path><path d="M298.67,422.88s3.68,5.34,15.61,10.4c6.71,2.84,27.45,11,33.75,12.44a16.82,16.82,0,0,1-3.21,4.2s-24.37-10.21-29.94-12.42a35.7,35.7,0,0,1-3.54-1.67c-.51-.27-1-.54-1.49-.82-1.24-.72-2.38-1.45-3.32-2.08s-1.69-1.18-2.16-1.52l-.48-.37-.06-.05C298.59,426.43,298.67,422.88,298.67,422.88Z"></path><path d="M324.5,403.48l3.48,4.1,3.37-1.1s-6-6.52-9.85-9.94a12.24,12.24,0,0,0-2.21-1.74c1.95-5.12,1.88-13.51,1.88-13.51a27.13,27.13,0,0,1-5.1,12.28,22.38,22.38,0,0,0-9.72-.11c-6.77,1.13-26.38,4.46-26.38,4.46s18.8-1.69,28.58-2.06S322.14,400.72,324.5,403.48Z"></path></g><path d="M386,446.6c4.76,1.87,7.69,3.76,9.89,6.63s2.86,5.77.78,9.25-5.92,7.56-10.47,7.29-7.36-1.4-11.58-3.69Z" style="fill:#263238"></path><path d="M348,450.62c-.07,1.42,5.93,4.26,12.17,7.24,6.69,3.19,8.33,5.26,13.79,7.95,6.24,3.07,8.61,3.25,13.45,1.9s10.81-8.27,6.65-14.64c-3.39-5.19-7.79-6.62-14.45-8.37a127.92,127.92,0,0,1-15.59-5c-4.81-1.87-8.78-5.23-9.78-4.07.69.34,5.73,3.45,4.78,4.29-.24.44-1,.3-2.2-.21a2.07,2.07,0,0,0-1.72-.08,3.25,3.25,0,0,0-1.25,1.49,39.37,39.37,0,0,0-1.51,3.82c-.37.88-.21.37-.56,1.26s-1.13,2.5-1,3.41c.06.55.46.73.88,1s1,.6,1.42.9c.16.13.44.54.35.74-.15.35-1,.19-1.38,0s-1-.3-1.41-.47S349.14,451.13,348,450.62Z" style="fill:#455a64"></path><path d="M371.86,464.78c.9.45,6.56,3.08,8.33,1.5,1.93-1.7-2.61-4.43-2.61-4.43s-.7-4.27,4.46-10.55c.89.69,4.61.66,4.56-1.54s-6.29-4.87-6.38-4.91c6.38,1.71,10.59,3.18,13.88,8.22,4.16,6.37-1.81,13.3-6.65,14.64s-7.21,1.17-13.45-1.9C373.38,465.5,372.41,465.1,371.86,464.78Z" style="fill:#37474f"></path><path d="M378.18,461.42c2.37.79.75,2.94-2.71,2.24-5.19-1-9.49-4-15.26-5.8-6.24-3-12.59-5.75-12.18-7.32,1.12.41,3.5,1.41,3.5,1.41.47.2,1.68.65,1.68.65,4.72,2,10,5.32,15.07,6.71C372.78,460.53,375.82,460.64,378.18,461.42Z" style="fill:#37474f"></path><path d="M381.69,452.11c-2.16-1.25-2.53-2.32-6.77-4.27s-11.4-6.11-15.83-8.69a56.35,56.35,0,0,1-4.81-3.56c.74-.83,3.44-.06,6.14,1.64s4.35,2.79,7,4.19c5.21,3.12,11.14,5.23,14.11,7.14S383.85,453.36,381.69,452.11Z" style="fill:#37474f"></path><path d="M382,451.53a.62.62,0,0,1-.12.19,19,19,0,0,0-4,10.46.64.64,0,0,1-.6.59.52.52,0,0,1-.48-.6c.67-7.17,4.21-11.05,4.41-11.26a.49.49,0,0,1,.75,0A.6.6,0,0,1,382,451.53Z" style="fill:#f0f0f0"></path><path d="M377.82,448.47a.42.42,0,0,1-.11.18,25.81,25.81,0,0,0-5,12.35.63.63,0,0,1-.61.56.51.51,0,0,1-.46-.62A26.74,26.74,0,0,1,377,447.86a.51.51,0,0,1,.76-.05A.61.61,0,0,1,377.82,448.47Z" style="fill:#f0f0f0"></path><path d="M368.59,460.56a.59.59,0,0,1-.5.37.51.51,0,0,1-.52-.56c.25-7.57,5.12-14.68,5.36-14.92a.49.49,0,0,1,.75,0,.65.65,0,0,1,0,.84c-.05.06-4.77,7-5,14.05A1.14,1.14,0,0,1,368.59,460.56Z" style="fill:#f0f0f0"></path><path d="M364.71,458.08a.56.56,0,0,1-.49.37.5.5,0,0,1-.53-.55,22.32,22.32,0,0,1,5.65-14.16.5.5,0,0,1,.76,0,.65.65,0,0,1-.1.84,21.48,21.48,0,0,0-5.23,13.21A.58.58,0,0,1,364.71,458.08Z" style="fill:#f0f0f0"></path><path d="M359.69,456a.61.61,0,0,1-.48.37.5.5,0,0,1-.54-.54c0-7.88,5.57-14,5.82-14.22a.5.5,0,0,1,.76,0,.63.63,0,0,1-.08.84c-.06.06-5.39,5.95-5.42,13.27A.66.66,0,0,1,359.69,456Z" style="fill:#ebebeb"></path></g><g id="freepik--Top--inject-59"><g id="freepik--Arm--inject-59"><path id="freepik--arm--inject-59" d="M293.38,292.4c10.08-.69,18.68,5.25,19.85,13.27,1.22,8.31-2.78,33.11-2.78,33.11l18.3,12.66-9.56,13.45s-17.58-7.6-23.67-10.46c-9.29-4.36-8-7.2-7.93-18.63S292.26,298.86,293.38,292.4Z" style="fill:#ffa8a7"></path><path d="M293.42,292.38a24.42,24.42,0,0,1,7.81.7c2.21.69,6.74,2.58,9.08,5.59s3.46,5.47,3.4,12.35-2,21.12-2,21.12l-15,.11Z" style="fill:#2C2D32"></path></g><g id="freepik--Chest--inject-59"><path d="M311.08,318.06c-1.69-18.73-8.1-25-17.66-25.68-.18,0-13.33.61-20.86,2-9.16,1.73-19.77,6.91-22.91,8.88-4.74,3-6.25,9.29-6.35,22.55a298.21,298.21,0,0,0,2.49,38.24,197.78,197.78,0,0,0,6.54,33c13.19,4.4,64.71-13.63,64.31-30.37-1.36-3.83-3-6.21-4.05-14C311.23,339.07,311.61,323.94,311.08,318.06Z" style="fill:#fafafa"></path><g id="freepik--Head--inject-59"><path d="M266.28,287.59c-.54-5.28-5.38-11.08-7.43-15.8-2-4.54-3.09-8-2.56-12.16.31-2.44,2.08-5.65,3.94-6.23-1.5-9.24,5.48-12.44,8.62-13.31,1.38-.39,4.41-.92,5.77-1.39,2-.7,2.58-2.25,4.26-3.5,2.89-2.14,7.5-1.89,9,1.74,2-2.23,4.45-2,7.25-1.1a4.88,4.88,0,0,1,3.37,5.76c4-1.89,7.28,1,7.49,3.31.15,1.67-.3,3,.69,4.6,1.11,1.75,3.42,1.87,4.2.57.24,2.37-.79,4.11-3.33,3.81a5.35,5.35,0,0,1,.36,4.53,4.89,4.89,0,0,1-4.62,3.07,7.46,7.46,0,0,1-4.55,6c-4,1.58-8.29,1.9-12.51,2.49l-5,.69c-.29,0-1.79,0-2,.28Z" style="fill:#263238"></path><path d="M260.39,280.41c3.54,2.44,6.18.23,6.18.23l-1.4,17.23c2.38,7.57,14.91,9.64,19.63,7.86s4.33-4.55,1.62-8.88l.51-2.8a49,49,0,0,0,6.24.13c4.13-.29,7.44-3.41,8.9-7.77a46.08,46.08,0,0,0,1.66-17.57,15.26,15.26,0,0,1,.07-4.32c.64-3.79.1-6-.67-9.32-4.27-3.93-14.63-5.86-24.75-.58.74,5.86-1.81,10.3-6.17,12.23.1,1.58,0,5.54-2.53,5.3-1.85-.18-1.82-2.51-3.59-4.68s-6.16-3-8.08-.11C255.33,271.42,256.52,277.74,260.39,280.41Z" style="fill:#ffa8a7"></path><path d="M277.88,264.17l-12.54,2.57a4.9,4.9,0,0,1,1.65,2.1l10.91-1.78Z" style="fill:#263238"></path><path d="M306.72,262.65l-.81,0a23.55,23.55,0,0,0-8.17.7c-2.68.95-3.68,1.92-5.13,2s-2.43-.8-5.13-1.48c-2.15-.53-5.85-.25-8.71.19l-.89.15a1.79,1.79,0,0,0-1.16,1.56,2.82,2.82,0,0,0,.62,1.72,2,2,0,0,1,.2.7A29.89,29.89,0,0,0,278,273a5.27,5.27,0,0,0,.92,1.74,4.1,4.1,0,0,0,.52.5l.31.22a4.18,4.18,0,0,0,.95.45l.16.05.26.07.27.06a5.62,5.62,0,0,0,.87.1l.37,0,.48,0a7.3,7.3,0,0,0,6.5-4.05c1.09-1.93,1.12-4.55,2.78-4.63h.16l.14,0c1.21.23.83,2.65,1.45,4.37a6.15,6.15,0,0,0,1,1.86,3.58,3.58,0,0,0,.26.29l.14.13.15.13.13.11.15.1.12.08.08.05a4.61,4.61,0,0,0,1.41.55l.13,0a7.07,7.07,0,0,0,1.77.1,6,6,0,0,0,5.42-3.76,35.5,35.5,0,0,0,1.38-5,1.58,1.58,0,0,1,.34-.66,3.77,3.77,0,0,0,.88-1.83C307.61,263.37,307.17,262.69,306.72,262.65Zm-17.88,7.81a6.89,6.89,0,0,1-1.53,2.69h0a5.84,5.84,0,0,1-4.16,1.72,3.63,3.63,0,0,1-3.61-1.72,1.74,1.74,0,0,1-.1-.19l-.09-.18a.87.87,0,0,1-.07-.17l-.06-.15a.65.65,0,0,1,0-.13.36.36,0,0,1,0-.11l-.06-.18h0c-.05-.19-.09-.37-.12-.55h0l-.06-.32c0-.19,0-.37-.06-.53a.38.38,0,0,0,0-.1.28.28,0,0,0,0-.09c-.12-1.29-.13-3.82.56-4.43s2.39-1.27,5-1.14h.29q.6,0,1.2.15l.46.1a9,9,0,0,1,1.14.34,2.83,2.83,0,0,1,.35.14,3.34,3.34,0,0,1,.38.17l.07,0,.14.08a2,2,0,0,1,.73.63C289.63,267.3,289.3,269,288.84,270.46Zm15.81-1.39c-.28,1-.89,3.27-2.87,4.34a4.84,4.84,0,0,1-2.06.58,3.75,3.75,0,0,1-3.9-1.77v0l-.06-.11-.07-.14,0-.07c0-.07-.06-.14-.08-.2l-.09-.24s0-.08,0-.12,0,0,0-.06a.44.44,0,0,1,0-.1.24.24,0,0,1,0-.08,5.5,5.5,0,0,1-.18-1c-.15-1.44-.14-3.11.44-3.93s2.62-1.78,4.53-2.12a10.3,10.3,0,0,1,1.24-.16h1.08l.33,0,.6.08.15,0h0l.1,0,.15,0,.17.05.28.11,0,0a2.21,2.21,0,0,1,.63.39C305.5,265.2,305,267.75,304.65,269.07Z" style="fill:#37474f"></path><path d="M299,276.54l-6.39,2.81-1.62-10.54c.32-.72.73-1.21,1.46-1.26h.3a.77.77,0,0,1,.2.07l0,0c.1.09.21.19.31.3a17.32,17.32,0,0,1,2,2.56c.62.92,1.27,2,1.91,3l1.07,1.8C298.46,275.75,298.71,276.14,299,276.54Z" style="fill:#f28f8f"></path><path d="M286.93,294.05c-6.46-1.2-11.35-2.23-14.43-7.17a40.62,40.62,0,0,1-3.41-8s.29,5.8,2.15,9.84c1.44,3.12,5.14,6,15.28,7.58Z" style="fill:#f28f8f"></path><path d="M286.29,269.73a1.83,1.83,0,1,1-1.79-1.94A1.86,1.86,0,0,1,286.29,269.73Z" style="fill:#263238"></path><path d="M285.78,261.25l-4.31,1.22a2.36,2.36,0,0,1,1.6-2.84A2.19,2.19,0,0,1,285.78,261.25Z" style="fill:#263238"></path><path d="M284.79,280.36l6,2.2a3.35,3.35,0,0,1-4.21,1.92A3.1,3.1,0,0,1,284.79,280.36Z" style="fill:#b16668"></path><path d="M288.3,284.6a3.76,3.76,0,0,0-3.72-3.36,3.06,3.06,0,0,0,2,3.24A3.18,3.18,0,0,0,288.3,284.6Z" style="fill:#f28f8f"></path><path d="M302.33,262.22l-4.45-.8a2.16,2.16,0,0,1,2.55-1.85A2.38,2.38,0,0,1,302.33,262.22Z" style="fill:#263238"></path><path d="M300.55,269.28a1.84,1.84,0,1,1-1.62-2.1A1.89,1.89,0,0,1,300.55,269.28Z" style="fill:#263238"></path></g></g><path d="M266.53,265.78l-7.07-.22s-1.18-7-1.56-11.15c-.08-.81-.12-1.51-.13-2,0-.23,0-.46,0-.7,0-2.95.32-5.62,3.51-8.1a19.43,19.43,0,0,1,7.56-3.48,9.89,9.89,0,0,0-3.38,2.45,8.33,8.33,0,0,0-2.06,4.28,7,7,0,0,0-.09,1.69,24.17,24.17,0,0,0,.24,2.66C264.31,257,266.53,265.78,266.53,265.78Z" style="fill:#455a64"></path><path d="M269.52,278.07a16.59,16.59,0,0,0-2.45-14.79,7,7,0,0,0-2.9-2.22,4.2,4.2,0,0,0-2.22-.24l-2.49.41c-1.69.29-3.16,1.7-4,4A16.59,16.59,0,0,0,257.89,280a7.05,7.05,0,0,0,2.91,2.22,4.1,4.1,0,0,0,2.22.23l2.46-.4C267.19,281.76,268.66,280.36,269.52,278.07Z" style="fill:#37474f"></path><path d="M260.8,282.22a7.05,7.05,0,0,1-2.91-2.22,16.59,16.59,0,0,1-2.45-14.79c1.22-3.24,3.67-4.71,6.25-3.74a7,7,0,0,1,2.9,2.22,16.62,16.62,0,0,1,2.46,14.79C265.83,281.72,263.38,283.19,260.8,282.22Z" style="fill:#263238"></path><path d="M266.54,278.29A15.94,15.94,0,0,0,264.18,264c-1.47-1.78-3.12-2.52-4.61-2.27l-1.24.2c-1.49.25-2.82,1.48-3.63,3.64a16,16,0,0,0,2.37,14.27c1.46,1.78,3.12,2.51,4.61,2.26l1.24-.2C264.41,281.68,265.73,280.45,266.54,278.29Z" style="fill:#f0f0f0"></path><path d="M262.94,264.23a16,16,0,0,1,2.37,14.27c-1.62,4.32-5.31,4.93-8.24,1.37a16,16,0,0,1-2.37-14.27C256.32,261.28,260,260.67,262.94,264.23Z" style="fill:#e0e0e0"></path><path d="M265.31,278.5a16,16,0,0,0-2.37-14.27c-1.46-1.77-3.11-2.51-4.6-2.26-.42.06-1.19.24-1.6.31-1.49.25-2.82,1.48-3.63,3.64a16,16,0,0,0,2.37,14.26c1.46,1.78,3.11,2.52,4.6,2.27.42-.07,1.18-.25,1.6-.32C263.17,281.89,264.5,280.66,265.31,278.5Z" style="fill:#2C2D32"></path><path d="M261.35,264.55a16,16,0,0,1,2.36,14.27c-1.62,4.31-5.3,4.92-8.23,1.36a16,16,0,0,1-2.37-14.26C254.73,261.6,258.42,261,261.35,264.55Z" style="fill:#fff;opacity:0.15"></path><path d="M259.05,268.56a8.38,8.38,0,0,1,1.24,7.49c-.85,2.27-2.78,2.59-4.32.72a8.39,8.39,0,0,1-1.25-7.49C255.58,267,257.51,266.69,259.05,268.56Z" style="fill:#263238"></path><path d="M260.21,271.38l-2.89,1.31-.88-5.29a2.66,2.66,0,0,1,2.42,1.19A7.48,7.48,0,0,1,260.21,271.38Z" style="fill:#455a64"></path><path d="M260.1,276.08a2.65,2.65,0,0,1-1.9,1.91l-.88-5.3,2.89-1.31A8.13,8.13,0,0,1,260.1,276.08Z" style="fill:#37474f"></path><path d="M258.2,278a2.65,2.65,0,0,1-2.42-1.19,7.17,7.17,0,0,1-1.35-2.8l2.89-1.31Z" style="fill:#455a64"></path><path d="M257.32,272.69,254.43,274a8.1,8.1,0,0,1,.1-4.69,2.67,2.67,0,0,1,1.91-1.91Z" style="fill:#37474f"></path><g id="freepik--Laptop--inject-59"><path d="M281.22,402.51v1.23a3.5,3.5,0,0,0,1.73,3l33.2,19.3a3.49,3.49,0,0,0,3.48,0l61.2-35a3.51,3.51,0,0,0,1.76-3v-.85l-64.69,37Z" style="fill:#ebebeb"></path><path d="M382.58,387.24l-36.1-21.05a2.09,2.09,0,0,0-2.08,0l-62.95,36a.47.47,0,0,0,0,.81l36.44,21.25Z" style="fill:#fafafa"></path><polygon points="317.57 421.14 298.1 409.8 355.32 377.09 374.9 388.38 317.57 421.14" style="fill:#e0e0e0"></polygon><polygon points="308.11 389.78 308.47 389.99 318.01 395.56 335.07 385.81 335.43 385.61 325.53 379.83 308.11 389.78" style="fill:#e0e0e0"></polygon><polygon points="308.47 389.99 318.01 395.56 335.07 385.81 325.52 380.24 308.47 389.99" style="fill:#e6e6e6"></polygon><path d="M317.89,424.22v2.32a3.49,3.49,0,0,0,1.74-.46l61.2-35a3.51,3.51,0,0,0,1.76-3v-.85Z" style="fill:#ebebeb"></path><g style="mix-blend-mode:multiply;opacity:0.5"><path d="M317.89,424.22v2.32a3.49,3.49,0,0,0,1.74-.46l61.2-35a3.51,3.51,0,0,0,1.76-3v-.85Z" style="fill:#e0e0e0"></path></g><path d="M367.5,377.09c-2-2.8-4.55-5.26-6.4-8.2-1.71-2-4-3.44-5.93-5.11-6.07-4.23-7.61-4.11-15.23-6.43a33,33,0,0,1-11.19-5.91l-9.56,13.45c1.12.61,2.21,1.24,3.26,1.87,1.72,1,4,4.81,7.85,6.23,5.13,1.87,11.14.47,11.72,1.95a11,11,0,0,0,.42,2.77,9.53,9.53,0,0,0-3-.74c-.94,0-2.27,1.13-2,1.78s.87.89,1.56,1.42c.47.37,2.07,1.64,2.29,1.78a9,9,0,0,0,4.79.69,2.08,2.08,0,0,0,1.56-1.38,8.29,8.29,0,0,0,1.1.37,2.82,2.82,0,0,0,2.08-.15,1.72,1.72,0,0,0,.66-1,8.6,8.6,0,0,0,2.51-.54c1.12-.64,1.12-2,1.32-3.16a14.36,14.36,0,0,0,.1-4.24c3.45,2,6.15,5.91,10.3,6.6C367.24,379.32,369.14,378.74,367.5,377.09Z" style="fill:#ffa8a7"></path><g id="freepik--arm--inject-59"><path d="M232.94,362.64c.84-16.3,1.73-31.06,3.61-43.06,1-6.62,7.1-13,13.46-15.57,9.37,5.1,8.95,24,8.28,28.64l-3.46,28.8s8.19,5.24,16.75,10.05c7.24,4.07,12,7.42,20,7.4s11.1-.67,15.41.61c2.29.68,7.52,2.27,9.32,2.92s5.21,3.35,8.27,5.07c2.9,1.79-.26,3.36-2.38,3a26.73,26.73,0,0,1-6.53-2.24,34.78,34.78,0,0,0-5.54-1.38,31.43,31.43,0,0,1,1.88,6c.14,1.13.55,2.47-.33,3.41a8.54,8.54,0,0,1-2.24,1.27,1.72,1.72,0,0,1-.33,1.14,2.84,2.84,0,0,1-1.95.76,7.69,7.69,0,0,1-1.16,0,2.1,2.1,0,0,1-1.08,1.78,9.14,9.14,0,0,1-4.79.75c-.24-.06-2.15-.81-2.71-1a4.81,4.81,0,0,1-1.9-.9c-.47-.54.47-2,1.37-2.29a9.63,9.63,0,0,1,3.09-.17,10.39,10.39,0,0,1-1.22-2.53c-1-1.24-6.85.86-12.31.58-4.13-.21-7.51-3.69-9.43-4.29-12.26-3.82-21.58-6.41-34.18-12.06C231.3,374.16,232.5,371.09,232.94,362.64Z" style="fill:#ffa8a7"></path><path d="M311.19,387.12c-.81-1.45-2-3.15-3.19-3.43a13.83,13.83,0,0,1,2.1,3.2C310.47,387,310.83,387.05,311.19,387.12Z" style="fill:#f28f8f"></path><path d="M309.41,397.6a12.87,12.87,0,0,0-.3-3.34,30.34,30.34,0,0,0-.83-3.25,14.32,14.32,0,0,0-1.3-3.12,6.12,6.12,0,0,0-2.31-2.42,5.06,5.06,0,0,1,1.07,1.24,10,10,0,0,1,.81,1.42,23.44,23.44,0,0,1,1.12,3.08c.34,1.05.64,2.11,1,3.16A27.14,27.14,0,0,1,309.41,397.6Z" style="fill:#f28f8f"></path><path d="M306,399.47a15.72,15.72,0,0,0-.4-3.27,29.2,29.2,0,0,0-.88-3.17,22.48,22.48,0,0,0-1.28-3,6.36,6.36,0,0,0-2-2.6,4.31,4.31,0,0,1,.91,1.33,16,16,0,0,1,.65,1.47c.4,1,.78,2,1.12,3.05C304.78,395.29,305.45,397.34,306,399.47Z" style="fill:#f28f8f"></path><path d="M296.86,397.79a6.27,6.27,0,0,1,1.38,0c.44.05.78.23,1.35.34l-.27-.33a1.37,1.37,0,0,0,.17.64,1.87,1.87,0,0,0,.37.47,1.92,1.92,0,0,0,1,.48,4.59,4.59,0,0,1-.66-.77,2.13,2.13,0,0,1-.18-.41,1.13,1.13,0,0,1-.07-.37v-.25l-.27-.08a4,4,0,0,0-1.31-.11A2.8,2.8,0,0,0,296.86,397.79Z" style="fill:#f28f8f"></path><path d="M250.05,303.05a23,23,0,0,0-14,16.54c-2.26,10.22-3.18,30.5-3.18,30.5s3.42,3.21,12.43,4,11.31-1.4,11.31-1.4,1.52-14.21,2.2-20.77S260.31,307,250.05,303.05Z" style="fill:#2C2D32"></path></g><path d="M318.87,424.74a4.15,4.15,0,0,0,3.57-.26l60.92-34.82a4.15,4.15,0,0,0,2-2.89l6.83-39.64a4,4,0,0,0,.06-.68,4.16,4.16,0,0,0-1.21-2.95l-63.32,36.2a3.05,3.05,0,0,0-1.49,2.13Z" style="fill:#2C2D32"></path><g style="opacity:0.7000000000000001"><path d="M318.87,424.74a4.15,4.15,0,0,0,3.57-.26l60.92-34.82a4.15,4.15,0,0,0,2-2.89l6.83-39.64a4,4,0,0,0,.06-.68,4.16,4.16,0,0,0-1.21-2.95l-63.32,36.2a3.05,3.05,0,0,0-1.49,2.13Z" style="fill:#fff"></path></g><path d="M317.89,424.22l.41.24c.19.1.38.2.57.28l7.38-42.91a3.05,3.05,0,0,1,1.49-2.13l63.32-36.2a4.14,4.14,0,0,0-.84-.64l-63.44,36.26a3.07,3.07,0,0,0-1.5,2.13Z" style="fill:#fafafa"></path><path d="M353.26,388.26c.46-2.65,3.22-6.17,6.16-7.85s5-.9,4.5,1.76-3.21,6.17-6.16,7.85S352.8,390.91,353.26,388.26Z" style="fill:#2C2D32"></path></g></g></g></g></svg>